<?xml version="1.0" encoding="UTF-8" standalone="no"?>
<svg width="18px" height="18px" viewBox="0 0 18 18" version="1.1" xmlns="http://www.w3.org/2000/svg" xmlns:xlink="http://www.w3.org/1999/xlink" xmlns:sketch="http://www.bohemiancoding.com/sketch/ns">
    <!-- Generator: Sketch 3.4.2 (15855) - http://www.bohemiancoding.com/sketch -->
    <title>Shape</title>
    <desc>Created with Sketch.</desc>
    <defs></defs>
    <g id="Home" stroke="none" stroke-width="1" fill="none" fill-rule="evenodd" sketch:type="MSPage">
        <g id="Artboard-1" sketch:type="MSArtboardGroup" transform="translate(-1021.000000, -1279.000000)" fill="#F6B536">
            <path d="M1026.74932,1297 L1026.74932,1297 C1025.5036,1297 1024.49277,1295.98916 1024.49277,1294.74344 L1024.49277,1293.2964 C1022.94925,1292.91052 1021.8,1291.50961 1021.8,1289.84445 L1021.8,1283.23417 C1021.8,1281.27122 1023.39385,1279.67737 1025.3568,1279.67737 L1035.23867,1279.67737 C1037.20162,1279.67737 1038.79547,1281.27122 1038.79547,1283.23417 L1038.79547,1289.84865 C1038.79547,1291.8116 1037.20162,1293.40545 1035.23867,1293.40545 L1031.10724,1293.40545 C1030.92689,1293.40545 1030.76331,1293.49773 1030.67103,1293.64033 C1029.98735,1294.76022 1029.12751,1295.73331 1028.11668,1296.52185 C1027.71822,1296.83642 1027.24425,1297 1026.74932,1297 L1026.74932,1297 Z M1025.3568,1281.40544 C1024.35016,1281.40544 1023.52807,1282.22334 1023.52807,1283.23417 L1023.52807,1289.84865 C1023.52807,1290.85529 1024.34596,1291.67738 1025.3568,1291.67738 C1025.83496,1291.67738 1026.22084,1292.06326 1026.22084,1292.54142 L1026.22084,1294.74764 C1026.22084,1295.0706 1026.49347,1295.27193 1026.74513,1295.27193 L1026.74513,1295.27193 C1026.85418,1295.27193 1026.95485,1295.23418 1027.04712,1295.16288 C1027.89438,1294.50017 1028.6158,1293.68228 1029.19043,1292.73855 C1029.59309,1292.08004 1030.3229,1291.67319 1031.10305,1291.67319 L1035.23447,1291.67319 C1036.24112,1291.67319 1037.06321,1290.85529 1037.06321,1289.84445 L1037.06321,1283.23417 C1037.06321,1282.22753 1036.24531,1281.40544 1035.23447,1281.40544 L1025.3568,1281.40544 L1025.3568,1281.40544 Z" id="Shape" sketch:type="MSShapeGroup"></path>
        </g>
    </g>
</svg>