<?xml version="1.0" encoding="UTF-8" standalone="no"?>
<svg width="271px" height="80px" viewBox="0 0 271 80" version="1.1" xmlns="http://www.w3.org/2000/svg" xmlns:xlink="http://www.w3.org/1999/xlink" xmlns:sketch="http://www.bohemiancoding.com/sketch/ns">
    <!-- Generator: Sketch 3.4.2 (15855) - http://www.bohemiancoding.com/sketch -->
    <title>Group + Shape + Shape + Shape</title>
    <desc>Created with Sketch.</desc>
    <defs></defs>
    <g id="Home" stroke="none" stroke-width="1" fill="none" fill-rule="evenodd" sketch:type="MSPage">
        <g id="Artboard-1" sketch:type="MSArtboardGroup" transform="translate(-445.000000, -32.000000)" fill="#FFFFFF">
            <g id="Group-+-Shape-+-Shape-+-Shape" sketch:type="MSLayerGroup" transform="translate(445.000000, 32.000000)">
                <g id="Group" transform="translate(75.000000, 20.000000)" sketch:type="MSShapeGroup">
                    <path d="M11.7741949,10.4070434 C17.8256183,10.4070434 19.8863733,15.2566476 19.8863733,15.2566476 L19.9845045,15.2566476 C19.9845045,15.2566476 19.8863733,14.3810246 19.8863733,13.3033348 L19.8863733,0.80886853 L23.2555442,0.80886853 L23.2555442,36.6420548 L19.9845045,36.6420548 L19.9845045,33.9478303 C19.9845045,32.8364627 20.0826357,32.1292287 20.0826357,32.1292287 L19.9845045,32.1292287 C19.9845045,32.1292287 17.9564599,37.2819332 11.4143805,37.2819332 C4.74145952,37.2819332 0.554528718,31.7924507 0.554528718,23.8108105 C0.554528718,15.7281369 5.23211548,10.4070434 11.7741949,10.4070434 L11.7741949,10.4070434 Z M11.9050364,34.183575 C16.0592569,34.183575 19.9845045,31.1188945 19.9845045,23.8444883 C19.9845045,18.6581061 17.4003831,13.5390795 12.0685884,13.5390795 C7.65268485,13.5390795 4.05454119,17.3783494 4.05454119,23.8444883 C4.02183079,30.1422382 7.26016009,34.183575 11.9050364,34.183575 L11.9050364,34.183575 Z" id="Shape"></path>
                    <path d="M39.2509283,10.4070434 C46.1201116,10.4070434 49.6528345,15.8628481 49.6528345,22.2279536 C49.6528345,22.8341541 49.5547033,24.0128773 49.5547033,24.0128773 L30.4518315,24.0128773 C30.6153835,30.5800496 34.9658663,34.1498971 40.1013986,34.1498971 C44.6481438,34.1498971 47.6902107,31.0515389 47.6902107,31.0515389 L49.2275993,33.7120857 C49.2275993,33.7120857 45.5967453,37.2819332 40.0032674,37.2819332 C32.5780073,37.2819332 26.9845294,31.7924507 26.9845294,23.8781661 C26.951819,15.4587144 32.5125865,10.4070434 39.2509283,10.4070434 L39.2509283,10.4070434 Z M46.2182428,21.1839416 C46.0219804,15.8291703 42.8490719,13.3370126 39.1527971,13.3370126 C34.9985767,13.3370126 31.3677226,16.0312372 30.5826731,21.1839416 L46.2182428,21.1839416 L46.2182428,21.1839416 Z" id="Shape"></path>
                    <path d="M53.152847,0.842546337 L56.5220178,0.842546337 L56.5220178,29.8391379 C56.5220178,33.2069186 57.9939857,33.7120857 59.3024016,33.7120857 C59.7603471,33.7120857 60.1528719,33.64473 60.1528719,33.64473 L60.1528719,36.7430883 C60.1528719,36.7430883 59.5640847,36.8441217 58.9098768,36.8441217 C56.8164114,36.8441217 53.152847,36.1705656 53.152847,30.5800496 L53.152847,0.842546337 L53.152847,0.842546337 Z" id="Shape"></path>
                    <path d="M73.4987138,10.4070434 C80.3678972,10.4070434 83.9006201,15.8628481 83.9006201,22.2279536 C83.9006201,22.8341541 83.8024889,24.0128773 83.8024889,24.0128773 L64.6996171,24.0128773 C64.863169,30.5800496 69.2136518,34.1498971 74.3491842,34.1498971 C78.8959293,34.1498971 81.9379962,31.0515389 81.9379962,31.0515389 L83.4753849,33.7120857 C83.4753849,33.7120857 79.8445308,37.2819332 74.251053,37.2819332 C66.8257929,37.2819332 61.232315,31.7924507 61.232315,23.8781661 C61.232315,15.4587144 66.7603721,10.4070434 73.4987138,10.4070434 L73.4987138,10.4070434 Z M80.4987388,21.1839416 C80.3024764,15.8291703 77.1295679,13.3370126 73.433293,13.3370126 C69.2790726,13.3370126 65.6482186,16.0312372 64.863169,21.1839416 L80.4987388,21.1839416 L80.4987388,21.1839416 Z" id="Shape"></path>
                    <path d="M96.2978605,44.2532392 C101.138999,44.2532392 104.998826,41.8957927 104.998826,36.2042434 L104.998826,33.8467969 C104.998826,32.8701405 105.096957,32.0281953 105.096957,32.0281953 L104.998826,32.0281953 C103.526858,34.8908089 100.975447,36.5073436 97.1156204,36.5073436 C90.4426994,36.5073436 86.0267959,31.0515389 86.0267959,23.3393212 C86.0267959,15.6271035 90.1483059,10.4070434 96.8212268,10.4070434 C103.396017,10.4070434 105.031536,14.6841249 105.031536,14.6841249 L105.129668,14.6841249 C105.129668,14.6841249 105.064247,14.3810246 105.064247,13.8085019 L105.064247,11.013244 L108.335287,11.013244 L108.335287,36.0358543 C108.335287,44.1858835 102.480125,47.3515974 96.3959917,47.3515974 C93.5174767,47.3515974 90.6389618,46.5770078 88.2183924,45.2972512 L89.4940979,42.4346376 C89.5595187,42.4683154 92.634296,44.2532392 96.2978605,44.2532392 L96.2978605,44.2532392 Z M105.031536,23.372999 C105.031536,15.8628481 101.564234,13.5727573 97.1483308,13.5727573 C92.3071921,13.5727573 89.4613875,17.1762826 89.4613875,23.3056434 C89.4613875,29.4350042 92.6670064,33.4089854 97.6389868,33.4089854 C101.596945,33.4089854 105.031536,30.9168277 105.031536,23.372999 L105.031536,23.372999 Z" id="Shape"></path>
                    <path d="M127.045634,20.8134857 L128.41947,20.8134857 L128.41947,20.1399296 C128.41947,15.189292 125.802638,13.5054017 122.237205,13.5054017 C118.115695,13.5054017 115.20447,15.9638815 115.20447,15.9638815 L113.634371,13.3033348 C113.634371,13.3033348 116.905411,10.4070434 122.498888,10.4070434 C128.484891,10.4070434 131.821352,13.8085019 131.821352,20.240963 L131.821352,36.6420548 L128.615733,36.6420548 L128.615733,33.8467969 C128.615733,32.5670402 128.713864,31.6914173 128.713864,31.6914173 L128.615733,31.6914173 C128.615733,31.6914173 126.522267,37.2482554 120.307292,37.2482554 C116.153071,37.2482554 111.835299,34.7560977 111.835299,29.6370711 C111.769878,21.0155525 122.727861,20.8134857 127.045634,20.8134857 L127.045634,20.8134857 Z M120.797948,34.3182862 C125.540955,34.3182862 128.41947,29.2329374 128.41947,24.7874669 L128.41947,23.6760993 L126.980213,23.6760993 C123.054965,23.6760993 115.23718,23.8444883 115.23718,29.5023598 C115.23718,31.8934841 117.068963,34.3182862 120.797948,34.3182862 L120.797948,34.3182862 Z" id="Shape"></path>
                    <path d="M137.676513,14.2463134 L134.405473,14.2463134 L134.405473,11.350022 L137.709223,11.350022 L137.709223,3.97458236 L141.012973,3.97458236 L141.012973,11.350022 L147.260659,11.350022 L147.260659,14.2463134 L141.012973,14.2463134 L141.012973,26.9765243 C141.012973,33.0048517 144.741958,33.7457635 146.606451,33.7457635 C147.293369,33.7457635 147.751315,33.64473 147.751315,33.64473 L147.751315,36.7430883 C147.751315,36.7430883 147.195238,36.8441217 146.312057,36.8441217 C143.433542,36.8441217 137.643802,35.8674653 137.643802,27.3133024 L137.643802,14.2463134 L137.676513,14.2463134 Z" id="Shape"></path>
                    <path d="M161.195288,10.4070434 C168.064471,10.4070434 171.597194,15.8628481 171.597194,22.2279536 C171.597194,22.8341541 171.499063,24.0128773 171.499063,24.0128773 L152.396191,24.0128773 C152.559743,30.5800496 156.910226,34.1498971 162.045758,34.1498971 C166.592503,34.1498971 169.63457,31.0515389 169.63457,31.0515389 L171.171959,33.7120857 C171.171959,33.7120857 167.541105,37.2819332 161.947627,37.2819332 C154.522367,37.2819332 148.928889,31.7924507 148.928889,23.8781661 C148.928889,15.4587144 154.456946,10.4070434 161.195288,10.4070434 L161.195288,10.4070434 Z M168.162602,21.1839416 C167.96634,15.8291703 164.793432,13.3370126 161.097157,13.3370126 C156.942936,13.3370126 153.312082,16.0312372 152.527033,21.1839416 L168.162602,21.1839416 L168.162602,21.1839416 Z" id="Shape"></path>
                    <path d="M175.260759,0.842546337 L178.760771,0.842546337 L178.760771,5.1869834 L175.260759,5.1869834 L175.260759,0.842546337 L175.260759,0.842546337 Z M175.35889,11.013244 L178.728061,11.013244 L178.728061,36.6420548 L175.35889,36.6420548 L175.35889,11.013244 L175.35889,11.013244 Z" id="Shape"></path>
                    <path d="M185.106588,14.2463134 L181.835548,14.2463134 L181.835548,11.350022 L185.139298,11.350022 L185.139298,3.97458236 L188.443049,3.97458236 L188.443049,11.350022 L194.690734,11.350022 L194.690734,14.2463134 L188.443049,14.2463134 L188.443049,26.9765243 C188.443049,33.0048517 192.172034,33.7457635 194.036526,33.7457635 C194.723445,33.7457635 195.18139,33.64473 195.18139,33.64473 L195.18139,36.7430883 C195.18139,36.7430883 194.625314,36.8441217 193.742133,36.8441217 C190.863618,36.8441217 185.073878,35.8674653 185.073878,27.3133024 L185.073878,14.2463134 L185.106588,14.2463134 Z" id="Shape"></path>
                </g>
                <g id="Shape-+-Shape-+-Shape" sketch:type="MSShapeGroup">
                    <path d="M53.4337171,35.4623059 L57.1202793,31.6667137 C56.6487422,31.1370962 55.9843037,30.7840178 55.2341312,30.7840178 L47.861007,30.7840178 L47.861007,9.88619354 L51.1188991,9.88619354 C51.2046331,9.13590207 50.9902981,8.3635432 50.4330271,7.78979089 L43.7672083,0.926830645 C42.8241343,-0.0441347926 41.2594888,-0.0441347926 40.3164147,0.926830645 L33.650596,7.78979089 C33.093325,8.3635432 32.8575565,9.13590207 32.964724,9.88619354 L36.2226161,9.88619354 L36.2226161,30.7840178 L22.7838112,30.7840178 C22.5909097,30.7840178 22.3980082,30.8060852 22.2051067,30.85022 C9.8808438,31.7991181 0.150034505,42.4135357 0.150034505,55.3450299 C0.150034505,68.9164786 10.8453513,79.9281094 24.0269542,79.9281094 C37.1228231,79.9281094 47.775273,69.048883 47.8824405,55.5877713 L47.8824405,55.4774343 L47.8824405,42.7886814 L55.2555647,42.7886814 C56.0057372,42.7886814 56.6701757,42.4576705 57.1417128,41.9059856 L53.4551506,38.1103934 C52.7264116,37.3821693 52.7264116,36.1905299 53.4337171,35.4623059 L53.4337171,35.4623059 Z M24.0055207,67.7248392 C17.3611355,67.7248392 11.9813269,62.1859228 11.9813269,55.3450299 C11.9813269,48.5041371 17.3611355,42.9652206 24.0055207,42.9652206 L24.2412892,42.9652206 L24.3055897,42.9652206 L34.036399,42.9652206 C35.1080741,42.9652206 35.9868476,43.8699838 35.9868476,44.9733537 L35.9868476,54.2857949 C36.0082811,54.6388732 36.0297146,54.9698842 36.0297146,55.3229625 C36.0297146,62.1859228 30.6499059,67.7248392 24.0055207,67.7248392 L24.0055207,67.7248392 Z" id="Shape"></path>
                    <path d="M35.9439806,56.6911411 C35.3009756,62.8920795 30.1998024,67.7248392 24.0055207,67.7248392 C17.3611355,67.7248392 11.9813269,62.1859228 11.9813269,55.3450299 C11.9813269,48.5041371 17.3611355,42.9652206 24.0055207,42.9652206 L24.2412892,42.9652206 L24.3055897,42.9652206 L34.036399,42.9652206 C35.0009066,42.9652206 35.8153796,43.6934447 35.9654141,44.6644101 L35.9654141,30.7619504 L22.7838112,30.7619504 C22.5909097,30.7619504 22.3980082,30.7840178 22.2051067,30.8281526 C9.8808438,31.7770507 0.150034505,42.3914683 0.150034505,55.3229625 C0.150034505,68.8944113 10.8453513,79.906042 24.0269542,79.906042 C28.3779549,79.906042 32.4717535,78.7144026 35.9654141,76.618 L35.9654141,56.6911411 L35.9439806,56.6911411 Z" id="Shape"></path>
                    <path d="M53.4337171,35.4623059 L57.1202793,31.6667137 C56.6487422,31.1370962 55.9843037,30.7840178 55.2341312,30.7840178 L47.9681745,30.7840178 L47.9681745,42.7886814 L55.2341312,42.7886814 C55.9843037,42.7886814 56.6487422,42.4576705 57.1202793,41.9059856 L53.4337171,38.1103934 C52.7264116,37.3821693 52.7264116,36.1905299 53.4337171,35.4623059 L53.4337171,35.4623059 Z" id="Shape"></path>
                </g>
            </g>
        </g>
    </g>
</svg>