<?xml version="1.0" encoding="UTF-8" standalone="no"?>
<svg width="24px" height="16px" viewBox="0 0 24 16" version="1.1" xmlns="http://www.w3.org/2000/svg" xmlns:xlink="http://www.w3.org/1999/xlink" xmlns:sketch="http://www.bohemiancoding.com/sketch/ns">
    <!-- Generator: Sketch 3.4.2 (15855) - http://www.bohemiancoding.com/sketch -->
    <title>Shape</title>
    <desc>Created with Sketch.</desc>
    <defs></defs>
    <g id="Home" stroke="none" stroke-width="1" fill="none" fill-rule="evenodd" sketch:type="MSPage">
        <g id="Artboard-1" sketch:type="MSArtboardGroup" transform="translate(-735.000000, -1388.000000)" fill="#F6B536">
            <path d="M755.720664,1391.45404 C755.717198,1391.45057 755.712932,1391.44951 755.708932,1391.44524 C754.366447,1389.86706 750.995703,1388.8 746.829867,1388.8 C742.663497,1388.8 739.292753,1389.86706 737.950534,1391.44604 C737.947068,1391.44951 737.942269,1391.45057 737.939069,1391.45404 C736.778426,1392.69574 735,1396.28512 735,1398.36377 C735,1401.25058 740.196364,1403.51214 746.830133,1403.51214 C753.463903,1403.51214 758.66,1401.25085 758.66,1398.36377 C758.66,1396.28512 756.88184,1392.69574 755.720664,1391.45404 L755.720664,1391.45404 Z M746.829867,1389.8196 C751.834523,1389.8196 755.322851,1391.4943 755.322851,1392.99783 C755.322851,1393.2578 755.211933,1393.52203 755.013826,1393.78279 C754.414441,1392.14941 750.984505,1390.89518 746.830133,1390.89518 C742.675495,1390.89518 739.245559,1392.14941 738.645907,1393.78279 C738.4478,1393.52203 738.337149,1393.25753 738.337149,1392.99783 C738.336882,1391.4943 741.824944,1389.8196 746.829867,1389.8196 L746.829867,1389.8196 Z M746.069969,1393.746 L745.231949,1393.66174 L745.316205,1392.82372 L746.153958,1392.90878 L746.069969,1393.746 L746.069969,1393.746 Z M746.477914,1394.251 L746.477914,1394.7208 L746.007578,1394.7208 L746.007578,1394.251 L746.477914,1394.251 L746.477914,1394.251 Z M745.630829,1392.14248 L745.012512,1392.08009 L745.074904,1391.46177 L745.69322,1391.52416 L745.630829,1392.14248 L745.630829,1392.14248 Z M745.074904,1395.42364 L745.69322,1395.48576 L745.630829,1396.10408 L745.012512,1396.04169 L745.074904,1395.42364 L745.074904,1395.42364 Z M745.012512,1394.65068 L744.541643,1394.65068 L744.541643,1394.18087 L745.012512,1394.18087 L745.012512,1394.65068 L745.012512,1394.65068 Z M749.944645,1392.79066 L749.474576,1392.79066 L749.474576,1392.32086 L749.944645,1392.32086 L749.944645,1392.79066 L749.944645,1392.79066 Z M750.00677,1393.28499 L750.62562,1393.34738 L750.563762,1393.9657 L749.944645,1393.90331 L750.00677,1393.28499 L750.00677,1393.28499 Z M749.709744,1395.14607 L749.647885,1395.76439 L749.028769,1395.702 L749.091161,1395.08368 L749.709744,1395.14607 L749.709744,1395.14607 Z M750.526167,1395.29965 L750.935711,1394.45657 L751.77933,1394.86691 L751.399915,1395.64761 C751.365253,1395.65641 751.330325,1395.6652 751.295129,1395.674 L750.526167,1395.29965 L750.526167,1395.29965 Z M750.812261,1392.32779 L750.874653,1391.70947 L751.492703,1391.77186 L751.430578,1392.39018 L750.812261,1392.32779 L750.812261,1392.32779 Z M752.116618,1393.23407 L752.116618,1392.76346 L752.586688,1392.76346 L752.586688,1393.23407 L752.116618,1393.23407 L752.116618,1393.23407 Z M752.942906,1394.2326 L753.352451,1393.38951 L754.19607,1393.79986 L753.786526,1394.64294 L752.942906,1394.2326 L752.942906,1394.2326 Z M746.883993,1395.54815 L747.293804,1394.70507 L748.137423,1395.11515 L747.727612,1395.95823 L746.883993,1395.54815 L746.883993,1395.54815 Z M748.755473,1394.41631 L748.137423,1394.35392 L748.199548,1393.7356 L748.817864,1393.79799 L748.755473,1394.41631 L748.755473,1394.41631 Z M748.712545,1391.93264 L748.242476,1391.93264 L748.242476,1391.46177 L748.712545,1391.46177 L748.712545,1391.93264 L748.712545,1391.93264 Z M748.331797,1392.65015 L747.921986,1393.49323 L747.0789,1393.08395 L747.488178,1392.24087 L748.331797,1392.65015 L748.331797,1392.65015 Z M747.162622,1391.80253 L746.544305,1391.74014 L746.606697,1391.12182 L747.225013,1391.18421 L747.162622,1391.80253 L747.162622,1391.80253 Z M744.340603,1392.14248 L743.72202,1392.08009 L743.784412,1391.46177 L744.402995,1391.52416 L744.340603,1392.14248 L744.340603,1392.14248 Z M743.796943,1392.88531 L743.734552,1393.50363 L743.115702,1393.44124 L743.178094,1392.82292 L743.796943,1392.88531 L743.796943,1392.88531 Z M743.796943,1395.11541 L743.417528,1395.89611 C743.32714,1395.88118 743.243152,1395.86198 743.154897,1395.84518 L742.54378,1395.54815 L742.953324,1394.70507 L743.796943,1395.11541 L743.796943,1395.11541 Z M742.31901,1392.74667 L741.638036,1392.41551 L741.968657,1391.7348 L742.649632,1392.06516 L742.31901,1392.74667 L742.31901,1392.74667 Z M741.92413,1393.40791 L741.514586,1394.251 L740.671233,1393.84172 L741.080778,1392.99863 L741.92413,1393.40791 L741.92413,1393.40791 Z M740.609108,1393.33939 L739.990525,1393.27699 L740.052917,1392.65868 L740.671233,1392.72107 L740.609108,1393.33939 L740.609108,1393.33939 Z M740.077713,1394.01583 L740.077713,1394.4867 L739.607377,1394.4867 L739.607377,1394.01583 L740.077713,1394.01583 L740.077713,1394.01583 Z M741.019453,1394.65148 L741.638036,1394.71387 L741.575911,1395.33218 L741.050115,1395.27859 C741.019986,1395.26819 740.98959,1395.25673 740.959461,1395.24526 L741.019453,1394.65148 L741.019453,1394.65148 Z M746.829867,1402.49255 C740.363541,1402.49255 736.019595,1400.35764 736.019595,1398.36404 C736.019595,1397.181 736.743764,1395.32285 737.524725,1393.88518 C738.423804,1395.79985 742.187828,1397.1978 746.830133,1397.1978 C751.472439,1397.1978 755.236463,1395.79959 756.135275,1393.88518 C756.916236,1395.32285 757.640404,1397.18127 757.640404,1398.36404 C757.640138,1400.35764 753.296459,1402.49255 746.829867,1402.49255 L746.829867,1402.49255 Z" id="Shape" sketch:type="MSShapeGroup"></path>
        </g>
    </g>
</svg>