<?xml version="1.0" encoding="UTF-8" standalone="no"?>
<svg width="18px" height="14px" viewBox="0 0 18 14" version="1.1" xmlns="http://www.w3.org/2000/svg" xmlns:xlink="http://www.w3.org/1999/xlink" xmlns:sketch="http://www.bohemiancoding.com/sketch/ns">
    <!-- Generator: Sketch 3.4.2 (15855) - http://www.bohemiancoding.com/sketch -->
    <title>Shape Copy</title>
    <desc>Created with Sketch.</desc>
    <defs></defs>
    <g id="Home" stroke="none" stroke-width="1" fill="none" fill-rule="evenodd" sketch:type="MSPage">
        <g id="Artboard-1" sketch:type="MSArtboardGroup" transform="translate(-449.000000, -1281.000000)" fill="#F6B536">
            <path d="M466.273724,1291.90002 L459.345304,1287.22539 C459.216341,1287.13801 459.076674,1287.07134 458.930866,1287.02414 L458.930866,1285.20022 C458.930866,1284.97827 458.796989,1284.77842 458.592578,1284.69349 C458.153575,1284.51154 457.870206,1284.08728 457.870206,1283.61248 C457.870206,1282.96713 458.395184,1282.44216 459.040529,1282.44216 C459.685698,1282.44216 460.210677,1282.96713 460.210677,1283.61248 C460.210677,1283.91532 460.456146,1284.16097 460.759167,1284.16097 C461.062539,1284.16097 461.307833,1283.91532 461.307833,1283.61248 C461.307833,1282.36232 460.290687,1281.345 459.040529,1281.345 C457.790371,1281.345 456.77305,1282.36215 456.77305,1283.61248 C456.77305,1284.40328 457.179417,1285.12214 457.83371,1285.53237 L457.83371,1287.05362 C457.718608,1287.09801 457.608418,1287.15538 457.504721,1287.22522 L450.576653,1291.90002 C449.973067,1292.30691 449.710578,1293.04876 449.923412,1293.74534 C450.136246,1294.44192 450.768607,1294.90987 451.49712,1294.90987 L465.353081,1294.90987 C466.081419,1294.90987 466.713779,1294.44192 466.926964,1293.74534 C467.139798,1293.04876 466.877133,1292.30691 466.273724,1291.90002 L466.273724,1291.90002 Z M465.877884,1293.4246 C465.806647,1293.65673 465.595919,1293.81272 465.353257,1293.81272 L451.497295,1293.81272 C451.254633,1293.81272 451.04408,1293.65673 450.972667,1293.4246 C450.901781,1293.19229 450.989161,1292.94524 451.19059,1292.80926 L458.118658,1288.13498 C458.209722,1288.07322 458.315701,1288.04111 458.425364,1288.04111 C458.535027,1288.04111 458.641005,1288.07322 458.732069,1288.13463 L465.660137,1292.80926 C465.861215,1292.94524 465.948595,1293.19229 465.877884,1293.4246 L465.877884,1293.4246 Z" id="Shape-Copy" sketch:type="MSShapeGroup"></path>
        </g>
    </g>
</svg>