<?xml version="1.0" encoding="UTF-8" standalone="no"?>
<svg width="24px" height="19px" viewBox="0 0 24 19" version="1.1" xmlns="http://www.w3.org/2000/svg" xmlns:xlink="http://www.w3.org/1999/xlink" xmlns:sketch="http://www.bohemiancoding.com/sketch/ns">
    <!-- Generator: Sketch 3.4.2 (15855) - http://www.bohemiancoding.com/sketch -->
    <title>Oval</title>
    <desc>Created with Sketch.</desc>
    <defs></defs>
    <g id="Home" stroke="none" stroke-width="1" fill="none" fill-rule="evenodd" sketch:type="MSPage">
        <g id="Artboard-1" sketch:type="MSArtboardGroup" transform="translate(-734.000000, -1225.000000)" fill="#F6B536">
            <path d="M746.284168,1231.7362 C746.459046,1231.7362 746.600812,1231.3676 746.600812,1230.91292 C746.600812,1230.45824 746.459046,1230.08965 746.284168,1230.08965 C746.10929,1230.08965 745.967524,1230.45824 745.967524,1230.91292 C745.967524,1231.3676 746.10929,1231.7362 746.284168,1231.7362 Z M746.284168,1228.25311 C746.459046,1228.25311 746.600812,1227.88452 746.600812,1227.42984 C746.600812,1226.97516 746.459046,1226.60656 746.284168,1226.60656 C746.10929,1226.60656 745.967524,1226.97516 745.967524,1227.42984 C745.967524,1227.88452 746.10929,1228.25311 746.284168,1228.25311 Z M740.96221,1229.93741 C740.640659,1230.25887 740.480219,1230.61972 740.603857,1230.74339 C740.727496,1230.86707 741.088393,1230.70673 741.409945,1230.38527 C741.731496,1230.06381 741.891936,1229.70295 741.768297,1229.57928 C741.644659,1229.45561 741.283761,1229.61595 740.96221,1229.93741 Z M742.158146,1228.00278 C742.281802,1228.12644 742.642677,1227.96605 742.964183,1227.64454 C743.285688,1227.32304 743.446077,1226.96216 743.322421,1226.83851 C743.198765,1226.71485 742.83789,1226.87524 742.516385,1227.19675 C742.194879,1227.51825 742.03449,1227.87913 742.158146,1228.00278 Z M751.495712,1230.34039 C751.817218,1230.66189 752.178092,1230.82228 752.301749,1230.69862 C752.425405,1230.57497 752.265016,1230.21409 751.94351,1229.89259 C751.622004,1229.57108 751.261129,1229.41069 751.137473,1229.53435 C751.013817,1229.65801 751.174206,1230.01888 751.495712,1230.34039 Z M748.784998,1227.6445 C749.106458,1227.96605 749.46731,1228.12649 749.590984,1228.00285 C749.714657,1227.87921 749.554319,1227.51831 749.232859,1227.19676 C748.911399,1226.87521 748.550547,1226.71477 748.426873,1226.83841 C748.3032,1226.96205 748.463537,1227.32295 748.784998,1227.6445 Z M748.301093,1229.27969 C748.472008,1229.70105 748.741937,1229.98933 748.903996,1229.9236 C749.066055,1229.85786 749.058876,1229.463 748.887961,1229.04164 C748.717046,1228.62029 748.447117,1228.332 748.285058,1228.39774 C748.122999,1228.46348 748.130178,1228.85834 748.301093,1229.27969 Z M751.71255,1227.67361 C751.604143,1227.81084 751.805497,1228.15057 752.162286,1228.43243 C752.519075,1228.71429 752.89619,1228.83153 753.004597,1228.69431 C753.113004,1228.55708 752.91165,1228.21734 752.554861,1227.93549 C752.198072,1227.65363 751.820957,1227.53638 751.71255,1227.67361 Z M739.560214,1228.70469 C739.668586,1228.84196 740.045747,1228.72481 740.402627,1228.44304 C740.759507,1228.16128 740.960963,1227.82159 740.852591,1227.68433 C740.744219,1227.54707 740.367058,1227.66421 740.010178,1227.94598 C739.653298,1228.22774 739.451842,1228.56743 739.560214,1228.70469 Z M743.48347,1229.04265 C743.312509,1229.46396 743.305279,1229.8588 743.467321,1229.92456 C743.629362,1229.99031 743.899314,1229.70208 744.070274,1229.28077 C744.241235,1228.85946 744.248465,1228.46462 744.086423,1228.39886 C743.924382,1228.33311 743.65443,1228.62134 743.48347,1229.04265 Z M755.213532,1234.61766 C754.516915,1234.61766 753.915291,1234.83931 753.345332,1235.0293 C752.775372,1235.21928 752.268742,1235.3776 751.730447,1235.3776 C751.350474,1235.3776 750.938836,1235.28261 750.46387,1235.06096 C749.165629,1234.39601 747.835724,1234.0477 746.505819,1234.0477 C745.175913,1234.0477 743.877673,1234.39601 742.547767,1235.06096 C742.104465,1235.28261 741.756157,1235.34594 741.407848,1235.34594 C740.869553,1235.34594 740.394587,1235.15595 739.792963,1234.9343 C739.223004,1234.71265 738.558051,1234.45934 737.766441,1234.45934 C737.133153,1234.45934 736.404871,1234.61766 735.581597,1235.06096 L735.898241,1235.69425 C736.626522,1235.31428 737.228146,1235.18762 737.734777,1235.18762 C738.368065,1235.18762 738.938024,1235.3776 739.507984,1235.59926 C740.077943,1235.82091 740.679567,1236.07422 741.376184,1236.07422 C741.819486,1236.07422 742.326116,1235.97923 742.832747,1235.69425 C744.130988,1235.06096 745.334235,1234.74432 746.537483,1234.74432 C747.740731,1234.74432 748.943978,1235.06096 750.147226,1235.66258 C750.717185,1235.94756 751.223816,1236.07422 751.730447,1236.07422 C752.427064,1236.07422 753.028687,1235.85257 753.566982,1235.66258 C754.136942,1235.4726 754.643572,1235.31428 755.213532,1235.31428 C755.625169,1235.31428 756.068471,1235.40927 756.575101,1235.66258 L756.891746,1235.0293 C756.321786,1234.74432 755.751827,1234.61766 755.213532,1234.61766 Z M755.308525,1236.58085 L737.259811,1236.58085 C736.563194,1236.58085 735.96157,1237.15081 735.96157,1237.87909 C735.96157,1238.57571 736.531529,1239.17733 737.259811,1239.17733 L755.340189,1239.17733 C756.036806,1239.17733 756.63843,1238.60737 756.63843,1237.87909 C756.606766,1237.15081 756.036806,1236.58085 755.308525,1236.58085 Z M756.195129,1239.87395 L736.373207,1239.87395 C735.39161,1239.87395 734.6,1240.66556 734.6,1241.64716 C734.6,1242.62876 735.39161,1243.42037 736.373207,1243.42037 L756.226793,1243.42037 C757.20839,1243.42037 758,1242.62876 758,1241.64716 C758,1240.66556 757.176725,1239.87395 756.195129,1239.87395 Z M756.195129,1242.69208 L736.373207,1242.69208 C735.803248,1242.69208 735.328281,1242.21712 735.328281,1241.64716 C735.328281,1241.0772 735.803248,1240.60223 736.373207,1240.60223 L756.226793,1240.60223 C756.796752,1240.60223 757.271719,1241.0772 757.271719,1241.64716 C757.271719,1242.21712 756.796752,1242.69208 756.195129,1242.69208 Z M736.911502,1233.44608 L755.656834,1233.44608 C756.606766,1233.44608 757.366712,1232.68613 757.366712,1231.7362 L757.366712,1230.94459 C757.366712,1230.08965 757.018403,1229.29804 756.448444,1228.60142 C755.56184,1227.5565 754.168606,1226.70156 752.395399,1226.09993 C750.653857,1225.49831 748.532341,1225.15 746.284168,1225.15 C743.276049,1225.15 740.552909,1225.78329 738.558051,1226.79655 C737.54479,1227.30318 736.721516,1227.9048 736.151556,1228.63309 C735.549932,1229.26637 735.201624,1230.08965 735.201624,1230.94459 L735.201624,1231.7362 C735.201624,1232.68613 735.96157,1233.44608 736.911502,1233.44608 Z M735.929905,1230.94459 C735.929905,1230.27963 736.183221,1229.64635 736.689851,1229.04472 C737.449797,1228.12645 738.748038,1227.33484 740.394587,1226.76488 C742.072801,1226.19493 744.099323,1225.84662 746.252503,1225.84662 C749.165629,1225.84662 751.793775,1226.44824 753.661976,1227.39817 C754.611908,1227.87314 755.340189,1228.4431 755.84682,1229.04472 C756.353451,1229.64635 756.606766,1230.27963 756.606766,1230.94459 L756.606766,1231.7362 C756.606766,1232.27449 756.163464,1232.71779 755.625169,1232.71779 L736.911502,1232.71779 C736.373207,1232.71779 735.929905,1232.27449 735.929905,1231.7362 L735.929905,1230.94459 L735.929905,1230.94459 Z" id="Oval" sketch:type="MSShapeGroup"></path>
        </g>
    </g>
</svg>