<?xml version="1.0" encoding="UTF-8" standalone="no"?>
<svg width="22px" height="23px" viewBox="0 0 22 23" version="1.1" xmlns="http://www.w3.org/2000/svg" xmlns:xlink="http://www.w3.org/1999/xlink" xmlns:sketch="http://www.bohemiancoding.com/sketch/ns">
    <!-- Generator: Sketch 3.4.2 (15855) - http://www.bohemiancoding.com/sketch -->
    <title>Group</title>
    <desc>Created with Sketch.</desc>
    <defs></defs>
    <g id="Home" stroke="none" stroke-width="1" fill="none" fill-rule="evenodd" sketch:type="MSPage">
        <g id="Artboard-1" sketch:type="MSArtboardGroup" transform="translate(-1308.000000, -1382.000000)" fill="#F6B536">
            <g id="Group" sketch:type="MSLayerGroup" transform="translate(1308.000000, 1382.000000)">
                <path d="M16.8666667,22.228601 L5.13333333,22.228601 L5.13333333,0.686934289 L16.8666667,0.686934289 L16.8666667,22.228601 L16.8666667,22.228601 Z M6.05,21.3119343 L15.95,21.3119343 L15.95,1.60360096 L6.05,1.60360096 L6.05,21.3119343 L6.05,21.3119343 Z" id="Shape" sketch:type="MSShapeGroup"></path>
                <path d="M6.05,22.228601 L0.229166667,22.228601 L0.229166667,4.35360096 L6.05,4.35360096 L6.05,22.228601 L6.05,22.228601 Z M1.14583333,21.3119343 L5.13333333,21.3119343 L5.13333333,5.27026762 L1.14583333,5.27026762 L1.14583333,21.3119343 L1.14583333,21.3119343 Z" id="Shape" sketch:type="MSShapeGroup"></path>
                <path d="M21.7708333,22.228601 L15.95,22.228601 L15.95,4.35360096 L21.7708333,4.35360096 L21.7708333,22.228601 L21.7708333,22.228601 Z M16.8666667,21.3119343 L20.8541667,21.3119343 L20.8541667,5.27026762 L16.8666667,5.27026762 L16.8666667,21.3119343 L16.8666667,21.3119343 Z" id="Shape" sketch:type="MSShapeGroup"></path>
                <path d="M14.3916667,22.228601 L7.975,22.228601 L7.975,19.0202676 L14.3916667,19.0202676 L14.3916667,22.228601 L14.3916667,22.228601 Z M8.89166667,21.3119343 L13.475,21.3119343 L13.475,19.9369343 L8.89166667,19.9369343 L8.89166667,21.3119343 L8.89166667,21.3119343 Z" id="Shape" sketch:type="MSShapeGroup"></path>
                <rect id="Rectangle-path" sketch:type="MSShapeGroup" x="13.7958333" y="2.97860096" width="0.916666667" height="2.75"></rect>
                <rect id="Rectangle-path" sketch:type="MSShapeGroup" x="10.5416667" y="2.97860096" width="0.916666667" height="2.75"></rect>
                <rect id="Rectangle-path" sketch:type="MSShapeGroup" x="7.2875" y="2.97860096" width="0.916666667" height="2.75"></rect>
                <rect id="Rectangle-path" sketch:type="MSShapeGroup" x="13.7958333" y="8.02026762" width="0.916666667" height="2.75"></rect>
                <rect id="Rectangle-path" sketch:type="MSShapeGroup" x="10.5416667" y="8.02026762" width="0.916666667" height="2.75"></rect>
                <rect id="Rectangle-path" sketch:type="MSShapeGroup" x="7.2875" y="8.02026762" width="0.916666667" height="2.75"></rect>
                <rect id="Rectangle-path" sketch:type="MSShapeGroup" x="13.7958333" y="13.0619343" width="0.916666667" height="2.75"></rect>
                <rect id="Rectangle-path" sketch:type="MSShapeGroup" x="10.5416667" y="13.0619343" width="0.916666667" height="2.75"></rect>
                <rect id="Rectangle-path" sketch:type="MSShapeGroup" x="7.2875" y="13.0619343" width="0.916666667" height="2.75"></rect>
                <rect id="Rectangle-path" sketch:type="MSShapeGroup" x="18.3791667" y="6.64526762" width="0.916666667" height="2.29166667"></rect>
                <rect id="Rectangle-path" sketch:type="MSShapeGroup" x="18.3791667" y="11.228601" width="0.916666667" height="2.29166667"></rect>
                <rect id="Rectangle-path" sketch:type="MSShapeGroup" x="18.3791667" y="15.8119343" width="0.916666667" height="2.29166667"></rect>
                <rect id="Rectangle-path" sketch:type="MSShapeGroup" x="2.70416667" y="6.64526762" width="0.916666667" height="2.29166667"></rect>
                <rect id="Rectangle-path" sketch:type="MSShapeGroup" x="2.70416667" y="11.228601" width="0.916666667" height="2.29166667"></rect>
                <rect id="Rectangle-path" sketch:type="MSShapeGroup" x="2.70416667" y="15.8119343" width="0.916666667" height="2.29166667"></rect>
            </g>
        </g>
    </g>
</svg>