<?xml version="1.0" encoding="UTF-8" standalone="no"?>
<svg width="14px" height="26px" viewBox="0 0 14 26" version="1.1" xmlns="http://www.w3.org/2000/svg" xmlns:xlink="http://www.w3.org/1999/xlink" xmlns:sketch="http://www.bohemiancoding.com/sketch/ns">
    <!-- Generator: Sketch 3.4.2 (15855) - http://www.bohemiancoding.com/sketch -->
    <title>Shape</title>
    <desc>Created with Sketch.</desc>
    <defs></defs>
    <g id="Home" stroke="none" stroke-width="1" fill="none" fill-rule="evenodd" sketch:type="MSPage">
        <g id="Artboard-1" sketch:type="MSArtboardGroup" transform="translate(-450.000000, -1221.000000)" stroke="#F6B536">
            <path d="M456.850917,1228.05592 C458.176286,1228.05592 459.25063,1226.98158 459.25063,1225.65597 C459.25063,1224.7811 458.781429,1224.01796 458.081822,1223.59838 C458.147275,1223.43775 458.183958,1223.26225 458.183958,1223.07788 C458.183958,1222.31689 457.567546,1221.7 456.806322,1221.7 C456.045578,1221.7 455.428447,1222.31689 455.428447,1223.07788 C455.428447,1223.27855 455.472083,1223.46844 455.549524,1223.64082 C454.888278,1224.06855 454.450244,1224.81011 454.450244,1225.65597 C454.450484,1226.98158 455.524829,1228.05592 456.850917,1228.05592 Z M462.903546,1242.50119 L460.570245,1237.21171 C460.059326,1236.09636 459.605708,1235.14429 458.96676,1234.88392 C459.13387,1234.63745 459.233128,1234.33632 459.233128,1234.01097 L459.233128,1232.67457 L460.489448,1235.02969 C460.648166,1235.31764 461.03633,1235.40874 461.355684,1235.23276 C461.675518,1235.0563 461.806185,1234.68013 461.647467,1234.39146 L458.872776,1229.19284 C458.822667,1229.10149 458.747863,1229.03244 458.661072,1228.98306 C458.596817,1228.93319 458.516739,1228.90226 458.428748,1228.90226 L458.391826,1228.90226 C458.376002,1228.90106 458.360418,1228.90226 458.344115,1228.90226 L455.196124,1228.90226 C455.1803,1228.90226 455.164716,1228.90106 455.148892,1228.90226 L455.057785,1228.90226 C454.899067,1228.90226 454.763845,1228.99912 454.707262,1229.1365 C454.693596,1229.15496 454.678731,1229.17222 454.667463,1229.19308 L451.892772,1234.3917 C451.733574,1234.68037 451.864481,1235.0563 452.183835,1235.233 C452.503909,1235.40898 452.891354,1235.31788 453.050551,1235.02993 L454.203056,1232.86973 L454.203056,1234.01121 C454.203056,1234.37756 454.32749,1234.71321 454.534159,1234.97503 C453.9645,1235.3313 453.516876,1236.22583 453.103298,1237.12324 L450.769517,1242.56809 C450.436017,1243.70165 451.379215,1244.41229 452.214044,1244.41229 L454.882044,1244.41229 L454.882044,1245.1258 C454.882044,1245.46889 455.160161,1245.74748 455.503491,1245.74748 C455.84706,1245.74748 456.125177,1245.46889 456.125177,1245.1258 L456.125177,1244.41229 L457.575458,1244.41229 L457.575458,1245.1258 C457.575458,1245.46889 457.854054,1245.74748 458.196905,1245.74748 C458.540714,1245.74748 458.818831,1245.46889 458.818831,1245.1258 L458.818831,1244.41229 L461.547968,1244.41229 C462.383277,1244.41229 463.303459,1243.63476 462.903546,1242.50119 Z M459.869679,1240.82195 C459.655578,1240.82195 459.477679,1240.67042 459.435482,1240.46903 C459.393765,1240.67042 459.214907,1240.82195 459.001285,1240.82195 C458.787662,1240.82195 458.609284,1240.67042 458.567087,1240.46903 C458.52537,1240.67042 458.347471,1240.82195 458.13337,1240.82195 C457.919268,1240.82195 457.74089,1240.67042 457.699412,1240.46903 C457.657455,1240.67042 457.479077,1240.82195 457.265454,1240.82195 C457.051832,1240.82195 456.873214,1240.67042 456.831257,1240.46903 C456.789779,1240.67042 456.610922,1240.82195 456.397299,1240.82195 C456.183677,1240.82195 456.005059,1240.67042 455.963102,1240.46903 C455.921624,1240.67042 455.743246,1240.82195 455.529624,1240.82195 C455.315522,1240.82195 455.136904,1240.67042 455.095427,1240.46903 C455.053469,1240.67042 454.875571,1240.82195 454.661469,1240.82195 C454.447847,1240.82195 454.269229,1240.67042 454.227272,1240.46903 C454.185314,1240.67042 454.007416,1240.82195 453.793314,1240.82195 C453.380455,1240.82195 453.343053,1240.43474 453.343053,1240.43474 L455.209311,1235.1009 L458.276983,1235.1009 L460.217085,1240.10675 C460.277983,1240.22735 460.357102,1240.43474 460.357102,1240.43474 C460.33001,1240.65268 460.095289,1240.82195 459.869679,1240.82195 L459.869679,1240.82195 Z" id="Shape" sketch:type="MSShapeGroup"></path>
        </g>
    </g>
</svg>