<?xml version="1.0" encoding="UTF-8" standalone="no"?>
<svg width="20px" height="20px" viewBox="0 0 20 20" version="1.1" xmlns="http://www.w3.org/2000/svg" xmlns:xlink="http://www.w3.org/1999/xlink" xmlns:sketch="http://www.bohemiancoding.com/sketch/ns">
    <!-- Generator: Sketch 3.4.2 (15855) - http://www.bohemiancoding.com/sketch -->
    <title>Shape Copy 2</title>
    <desc>Created with Sketch.</desc>
    <defs></defs>
    <g id="Home" stroke="none" stroke-width="1" fill="none" fill-rule="evenodd" sketch:type="MSPage">
        <g id="Artboard-1" sketch:type="MSArtboardGroup" transform="translate(-1021.000000, -1224.000000)" stroke="#F6B536">
            <path d="M1039.98916,1225.58005 C1039.97599,1225.41749 1039.92475,1225.27879 1039.82083,1225.17488 C1039.82021,1225.17405 1039.81898,1225.17364 1039.81836,1225.17282 C1039.81795,1225.17241 1039.81774,1225.17179 1039.81733,1225.17138 C1039.78297,1225.13701 1039.74366,1225.10964 1039.70209,1225.08577 C1039.6986,1225.08372 1039.69613,1225.08042 1039.69263,1225.07857 C1039.65065,1225.05552 1039.60456,1225.03927 1039.55661,1225.0261 C1039.55105,1225.02425 1039.54591,1225.02157 1039.54015,1225.01992 C1039.50537,1225.01149 1039.4673,1225.00881 1039.42985,1225.00511 C1039.40721,1225.00264 1039.38622,1224.9977 1039.36277,1224.99688 C1039.34075,1224.99626 1039.31585,1224.99955 1039.2928,1225.00017 C1039.2502,1225.00161 1039.20802,1225.00223 1039.16275,1225.00819 C1039.15452,1225.00922 1039.14546,1225.0119 1039.13723,1225.01293 C1039.00492,1225.03227 1038.86272,1225.06911 1038.71045,1225.12323 C1038.71024,1225.12323 1038.71024,1225.12323 1038.70983,1225.12343 C1038.63102,1225.15142 1038.55015,1225.18352 1038.46681,1225.21974 C1038.43902,1225.23167 1038.41001,1225.24628 1038.3812,1225.25904 C1038.32729,1225.28394 1038.27378,1225.30781 1038.21802,1225.33559 C1036.06763,1226.40111 1032.7869,1229.61126 1032.7869,1229.61126 L1023.41368,1229.36453 L1021.99545,1231.09143 L1028.53201,1233.98961 L1025.75709,1237.4432 L1022.73564,1237.50473 L1021.99545,1238.42949 L1024.27137,1239.73701 L1024.27137,1240.89658 L1025.35603,1240.89658 L1026.56251,1242.99655 L1027.48769,1242.25657 L1027.54942,1239.23491 L1031.00259,1236.45978 L1033.90078,1242.99655 L1035.62768,1241.57811 L1035.38095,1232.20489 C1035.38095,1232.20489 1038.59295,1228.92293 1039.65744,1226.77275 C1039.68131,1226.72418 1039.70209,1226.67747 1039.72411,1226.63014 C1039.74016,1226.59475 1039.75848,1226.55833 1039.77309,1226.52376 C1039.80622,1226.44721 1039.83544,1226.37292 1039.86178,1226.30007 C1039.86425,1226.29349 1039.86692,1226.2867 1039.8696,1226.28032 C1039.89676,1226.20377 1039.91919,1226.12989 1039.93792,1226.05828 C1039.93895,1226.05437 1039.94018,1226.05046 1039.94142,1226.04676 C1039.95685,1225.98564 1039.96734,1225.92782 1039.97619,1225.87061 C1039.97846,1225.85683 1039.98257,1225.8418 1039.98422,1225.82822 C1039.98977,1225.78871 1039.98977,1225.7525 1039.99101,1225.71504 C1039.99265,1225.68624 1039.99615,1225.65599 1039.99533,1225.62841 C1039.99471,1225.61154 1039.9908,1225.59672 1039.98916,1225.58005 L1039.98916,1225.58005 Z" id="Shape-Copy-2" sketch:type="MSShapeGroup"></path>
        </g>
    </g>
</svg>