<?xml version="1.0" encoding="UTF-8" standalone="no"?>
<svg width="23px" height="23px" viewBox="0 0 23 23" version="1.1" xmlns="http://www.w3.org/2000/svg" xmlns:xlink="http://www.w3.org/1999/xlink" xmlns:sketch="http://www.bohemiancoding.com/sketch/ns">
    <!-- Generator: Sketch 3.4.2 (15855) - http://www.bohemiancoding.com/sketch -->
    <title>Oval</title>
    <desc>Created with Sketch.</desc>
    <defs></defs>
    <g id="Home" stroke="none" stroke-width="1" fill="none" fill-rule="evenodd" sketch:type="MSPage">
        <g id="Artboard-1" sketch:type="MSArtboardGroup" transform="translate(-450.000000, -1385.000000)" stroke="#F6B536">
            <path d="M455.02523,1392.54403 C456.165422,1392.54403 457.089729,1391.61972 457.089729,1390.47953 C457.089729,1389.33934 456.165422,1388.41503 455.02523,1388.41503 C453.885039,1388.41503 452.960731,1389.33934 452.960731,1390.47953 C452.960731,1391.61972 453.885039,1392.54403 455.02523,1392.54403 Z M451.905543,1400.34325 C451.309132,1400.34325 450.850355,1399.88447 450.850355,1399.28806 L450.850355,1395.11318 C450.850355,1393.96624 451.76791,1393.04869 452.914854,1393.04869 C453.19012,1393.32395 453.511264,1393.55334 453.878286,1393.69097 C454.245308,1393.82861 454.612331,1393.92036 455.02523,1393.92036 C455.392252,1393.92036 455.805152,1393.82861 456.172174,1393.69097 C456.539196,1393.55334 456.860341,1393.32395 457.135607,1393.04869 L460.071783,1390.11251 C460.484683,1389.69961 461.126972,1389.69961 461.539872,1390.11251 C461.952771,1390.52541 461.952771,1391.1677 461.539872,1391.5806 L458.007284,1395.11318 C457.410874,1395.7096 457.135607,1396.44364 457.135607,1397.17768 L457.135607,1397.95761 L459.200106,1402.63714 L457.135607,1402.63714 L457.135607,1405.48156 C457.135607,1406.07797 456.67683,1406.53675 456.080419,1406.53675 C455.484008,1406.53675 455.02523,1406.07797 455.02523,1405.48156 L455.02523,1402.63714 L455.02523,1405.48156 C455.02523,1406.07797 454.566453,1406.53675 453.970042,1406.53675 C453.373631,1406.53675 452.914854,1406.07797 452.914854,1405.48156 L452.914854,1402.63714 L450.896232,1402.63714 L451.905543,1400.34325 Z M457.777896,1398.7834 L470.944812,1398.7834 C471.541222,1398.7834 472,1398.32463 472,1397.72822 L472,1386.85519 C472,1386.25878 471.541222,1385.8 470.944812,1385.8 L456.172174,1385.8 C455.575763,1385.8 455.116986,1386.25878 455.116986,1386.85519 L455.116986,1388.41503 L455.116986,1386.85519 C455.116986,1386.25878 455.575763,1385.8 456.172174,1385.8 L470.944812,1385.8 C471.541222,1385.8 472,1386.25878 472,1386.85519 L472,1397.72822 C472,1398.32463 471.541222,1398.7834 470.944812,1398.7834 L457.777896,1398.7834 Z" id="Oval" sketch:type="MSShapeGroup"></path>
        </g>
    </g>
</svg>