<?xml version="1.0" encoding="UTF-8" standalone="no"?>
<svg width="28px" height="27px" viewBox="0 0 28 27" version="1.1" xmlns="http://www.w3.org/2000/svg" xmlns:xlink="http://www.w3.org/1999/xlink" xmlns:sketch="http://www.bohemiancoding.com/sketch/ns">
    <!-- Generator: Sketch 3.4.2 (15855) - http://www.bohemiancoding.com/sketch -->
    <title>Group</title>
    <desc>Created with Sketch.</desc>
    <defs></defs>
    <g id="Home" stroke="none" stroke-width="1" fill="none" fill-rule="evenodd" sketch:type="MSPage">
        <g id="Artboard-1" sketch:type="MSArtboardGroup" transform="translate(-1304.000000, -1329.000000)" fill="#F6B536">
            <g id="Group" sketch:type="MSLayerGroup" transform="translate(1304.000000, 1329.000000)">
                <path d="M22.1704918,25.4898305 C18.8196721,22.2864407 10.4196721,21.6915254 6.74754098,25.4898305 L6.10491803,24.8491525 C10.1442623,20.6847458 19.095082,21.3254237 22.8131148,24.8491525 L22.1704918,25.4898305 L22.1704918,25.4898305 Z" id="Shape" sketch:type="MSShapeGroup"></path>
                <path d="M12.6229508,22.3779661 L11.7508197,22.1491525 C14.3672131,12.7220339 11.9803279,6.1779661 11.9803279,6.13220339 L12.852459,5.81186441 C12.9442623,6.08644068 15.3311475,12.6762712 12.6229508,22.3779661 L12.6229508,22.3779661 Z" id="Shape" sketch:type="MSShapeGroup"></path>
                <path d="M15.8360656,22.3779661 L14.9639344,22.1491525 C17.5803279,12.7677966 13.8622951,5.81186441 13.8163934,5.72033898 L14.642623,5.26271186 C14.7803279,5.58305085 18.5442623,12.6305085 15.8360656,22.3779661 L15.8360656,22.3779661 Z" id="Shape" sketch:type="MSShapeGroup"></path>
                <path d="M12.9973087,19.4530945 L15.6522473,19.7615522 L15.5071687,20.3683543 L12.8522301,20.0598966 L12.9973087,19.4530945 L12.9973087,19.4530945 Z" id="Rectangle-path" sketch:type="MSShapeGroup"></path>
                <path d="M13.4563251,16.2496589 L16.1112637,16.5581166 L15.9661851,17.1649188 L13.3112465,16.856461 L13.4563251,16.2496589 L13.4563251,16.2496589 Z" id="Rectangle-path" sketch:type="MSShapeGroup"></path>
                <path d="M15.0774806,12.5670406 L15.1251038,14.4170894 L14.2546584,15.358675 L14.2070352,13.5086262 L15.0774806,12.5670406 L15.0774806,12.5670406 Z" id="Rectangle-path" sketch:type="MSShapeGroup"></path>
                <path d="M14.8006981,9.74708357 L14.9191892,10.9348851 L14.1196756,12.2181944 L14.0011845,11.0303929 L14.8006981,9.74708357 L14.8006981,9.74708357 Z" id="Rectangle-path" sketch:type="MSShapeGroup"></path>
                <path d="M14.2102534,7.41446348 L14.4583698,8.16336329 L13.7884154,9.06198906 L13.5402991,8.31308925 L14.2102534,7.41446348 L14.2102534,7.41446348 Z" id="Rectangle-path" sketch:type="MSShapeGroup"></path>
                <path d="M13.6939384,4.77694881 L13.7937886,6.01715378 L12.9756072,6.65321746 L12.875757,5.41301249 L13.6939384,4.77694881 L13.6939384,4.77694881 Z" id="Rectangle-path" sketch:type="MSShapeGroup"></path>
                <path d="M9.22622951,13.9576271 L8.76721311,11.9898305 C8.6295082,11.3949153 7.39016393,6.13220339 8.99672131,4.11864407 C9.40983607,3.61525424 10.0065574,3.34067797 10.695082,3.34067797 C11.3836066,3.34067797 12.2098361,3.61525424 13.1737705,4.16440678 L13.8163934,4.53050847 L13.2196721,4.94237288 C10.9245902,6.49830508 9.73114754,11.9440678 9.73114754,11.9898305 L9.22622951,13.9576271 L9.22622951,13.9576271 Z M10.6491803,4.2559322 C10.2360656,4.2559322 9.9147541,4.39322034 9.6852459,4.71355932 C8.90491803,5.67457627 8.99672131,8.00847458 9.27213115,9.83898305 C9.77704918,8.19152542 10.695082,5.90338983 12.0262295,4.66779661 C11.4754098,4.39322034 11.0163934,4.2559322 10.6491803,4.2559322 L10.6491803,4.2559322 Z" id="Shape" sketch:type="MSShapeGroup"></path>
                <path d="M21.0688525,10.4338983 L19.6918033,8.60338983 C19.6459016,8.55762712 16.8918033,4.89661017 14.1836066,4.89661017 C13.8622951,4.89661017 13.5409836,4.94237288 13.2196721,5.07966102 L11.704918,5.62881356 L12.7147541,4.34745763 C13.7704918,3.02033898 14.8721311,2.33389831 15.9278689,2.33389831 C18.957377,2.33389831 20.4262295,7.96271186 20.5180328,8.23728814 L21.0688525,10.4338983 L21.0688525,10.4338983 Z M14.3213115,3.98135593 C16.0655738,4.02711864 17.7639344,5.26271186 18.9114754,6.36101695 C18.2688525,4.85084746 17.2131148,3.24915254 15.9737705,3.24915254 C15.4229508,3.24915254 14.8721311,3.4779661 14.3213115,3.98135593 L14.3213115,3.98135593 Z" id="Shape" sketch:type="MSShapeGroup"></path>
                <path d="M13.8622951,6.40677966 L12.9901639,5.07966102 C12.4393443,4.2559322 11.5672131,3.8440678 10.3737705,3.8440678 C8.95081967,3.8440678 7.43606557,4.43898305 6.6557377,4.75932203 L6.56393443,4.80508475 L6.42622951,4.80508475 C6.19672131,4.80508475 6.01311475,4.66779661 5.92131148,4.48474576 C5.8295082,4.30169492 5.87540984,4.02711864 6.01311475,3.88983051 C7.20655738,2.60847458 9.4557377,0.503389831 11.2918033,0.503389831 C12.8983607,0.503389831 13.7704918,1.96779661 13.8622951,4.80508475 L13.8622951,6.40677966 L13.8622951,6.40677966 Z M10.3278689,2.92881356 C11.2918033,2.92881356 12.1180328,3.15762712 12.8065574,3.61525424 C12.5770492,2.15084746 12.0721311,1.41864407 11.2459016,1.41864407 C10.1901639,1.41864407 8.81311475,2.42542373 7.80327869,3.34067797 C8.58360656,3.11186441 9.4557377,2.92881356 10.3278689,2.92881356 L10.3278689,2.92881356 Z" id="Shape" sketch:type="MSShapeGroup"></path>
                <path d="M12.6229508,5.90338983 L12.6688525,4.30169492 C12.7606557,1.46440678 13.6327869,8.8817842e-16 15.2393443,8.8817842e-16 C17.0754098,8.8817842e-16 19.3245902,2.10508475 20.5180328,3.38644068 C20.6557377,3.56949153 20.7016393,3.79830508 20.6098361,3.98135593 C20.5180328,4.21016949 20.3344262,4.30169492 20.104918,4.30169492 L20.0131148,4.30169492 L19.8754098,4.2559322 C19.095082,3.93559322 17.5803279,3.34067797 16.157377,3.34067797 C14.9639344,3.34067797 14.0459016,3.75254237 13.5409836,4.57627119 L12.6229508,5.90338983 L12.6229508,5.90338983 Z M15.2393443,0.915254237 C14.4131148,0.915254237 13.9081967,1.64745763 13.6786885,3.11186441 C14.3213115,2.65423729 15.147541,2.42542373 16.157377,2.42542373 C17.0295082,2.42542373 17.9016393,2.60847458 18.6819672,2.83728814 C17.6721311,1.9220339 16.295082,0.915254237 15.2393443,0.915254237 L15.2393443,0.915254237 Z" id="Shape" sketch:type="MSShapeGroup"></path>
                <path d="M28,27 C26.8065574,27 26.2098361,26.4508475 25.704918,25.9474576 C25.2,25.4898305 24.8327869,25.1694915 24.0065574,25.1694915 C23.1803279,25.1694915 22.8131148,25.5355932 22.3081967,25.9474576 C21.757377,26.4508475 21.1606557,27 20.0131148,27 C18.8196721,27 18.2229508,26.4508475 17.7180328,25.9474576 C17.2131148,25.4898305 16.8459016,25.1694915 16.0196721,25.1694915 C15.1934426,25.1694915 14.8262295,25.5355932 14.3213115,25.9474576 C13.7704918,26.4508475 13.1737705,27 12.0262295,27 C10.8327869,27 10.2360656,26.4508475 9.73114754,25.9474576 C9.22622951,25.4898305 8.85901639,25.1694915 8.03278689,25.1694915 C7.20655738,25.1694915 6.83934426,25.5355932 6.33442623,25.9474576 C5.78360656,26.4508475 5.18688525,27 4.03934426,27 C2.84590164,27 2.24918033,26.4508475 1.7442623,25.9474576 C1.23934426,25.4898305 0.872131148,25.1694915 0.0459016393,25.1694915 L0.0459016393,24.2542373 C1.23934426,24.2542373 1.83606557,24.8033898 2.34098361,25.3067797 C2.84590164,25.7644068 3.21311475,26.0847458 4.03934426,26.0847458 C4.86557377,26.0847458 5.23278689,25.7186441 5.73770492,25.3067797 C6.28852459,24.8033898 6.8852459,24.2542373 8.03278689,24.2542373 C9.18032787,24.2542373 9.82295082,24.8033898 10.3278689,25.3067797 C10.8327869,25.7644068 11.2,26.0847458 12.0262295,26.0847458 C12.852459,26.0847458 13.2196721,25.7186441 13.7245902,25.3067797 C14.2754098,24.8033898 14.8721311,24.2542373 16.0196721,24.2542373 C17.2131148,24.2542373 17.8098361,24.8033898 18.3147541,25.3067797 C18.8196721,25.7644068 19.1868852,26.0847458 20.0131148,26.0847458 C20.8393443,26.0847458 21.2065574,25.7186441 21.7114754,25.3067797 C22.2622951,24.8033898 22.8590164,24.2542373 24.0065574,24.2542373 C25.2,24.2542373 25.7967213,24.8033898 26.3016393,25.3067797 C26.8065574,25.7644068 27.1737705,26.0847458 28,26.0847458 L28,27 L28,27 Z" id="Shape" sketch:type="MSShapeGroup"></path>
            </g>
        </g>
    </g>
</svg>