<svg xmlns="http://www.w3.org/2000/svg" xmlns:xlink="http://www.w3.org/1999/xlink" version="1.1" x="0px" y="0px" viewBox="0 0 90 112.5" enable-background="new 0 0 90 90" xml:space="preserve"><path d="M71.746,37.496H58.865V19.087c0-3.571-2.906-6.477-6.478-6.477h-37.92c-3.571,0-6.477,2.906-6.477,6.477v30.099  c0,3.571,2.905,6.478,6.477,6.478h6.032l-7.153,13.412l21.459-13.412h6.56v6.947c0,2.675,2.176,4.851,4.851,4.851h11.696  l15.886,9.928l-5.296-9.928h3.244c2.675,0,4.852-2.176,4.852-4.851V42.346C76.597,39.671,74.42,37.496,71.746,37.496z   M33.945,52.664l-12.668,7.918l4.223-7.918H14.467c-1.917,0-3.477-1.56-3.477-3.478V19.087c0-1.917,1.56-3.477,3.477-3.477h37.92  c1.918,0,3.478,1.56,3.478,3.477v18.408v1.5v10.191c0,1.918-1.56,3.478-3.478,3.478h-9.522h-1.5H33.945z M73.597,62.611  c0,1.021-0.831,1.851-1.852,1.851h-8.244l2.364,4.434l-7.093-4.434H46.215c-1.021,0-1.851-0.83-1.851-1.851v-6.947h8.022  c3.571,0,6.478-2.906,6.478-6.478v-8.691h12.881c1.021,0,1.852,0.83,1.852,1.851V62.611z"/></svg>