<svg xmlns="http://www.w3.org/2000/svg" xmlns:xlink="http://www.w3.org/1999/xlink" viewBox="0 0 18 22.5" version="1.1" xml:space="preserve" style="" x="0px" y="0px" fill-rule="evenodd" clip-rule="evenodd" stroke-linejoin="round" stroke-miterlimit="1.41421"><path d="M6.666,5.231c0,-0.9 0.731,-1.631 1.631,-1.631l5.738,0c0.9,0 1.631,0.731 1.631,1.631l0,3.262c0,0.901 -0.731,1.631 -1.631,1.631l-1.112,0l0.943,1.989l-2.475,-1.989l-3.094,0c-0.9,0 -1.631,-0.73 -1.631,-1.631l0,-1.669l0,-1.593Z" style="" fill="none" stroke-width="0.4px" stroke="#000"/><path d="M6.666,6.828l0,1.665c0,0.901 0.731,1.631 1.631,1.631l2.503,0l0,1.598c0,0.9 -0.731,1.631 -1.631,1.631l-3.094,0l-2.475,1.989l1.125,-1.989l-1.294,0c-0.9,0 -1.631,-0.731 -1.631,-1.631l0,-3.263c0,-0.9 0.731,-1.631 1.631,-1.631l3.235,0Z" style="" fill="none" stroke-width="0.4px" stroke="#000"/><text x="0" y="33" fill="#000000" font-size="5px" font-weight="bold" font-family="'Helvetica Neue', Helvetica, Arial-Unicode, Arial, Sans-serif">Created by Oliver Kittler</text><text x="0" y="38" fill="#000000" font-size="5px" font-weight="bold" font-family="'Helvetica Neue', Helvetica, Arial-Unicode, Arial, Sans-serif">from the Noun Project</text></svg>