<?xml version="1.0" encoding="UTF-8" standalone="no"?>
<svg width="23px" height="20px" viewBox="0 0 23 20" version="1.1" xmlns="http://www.w3.org/2000/svg" xmlns:xlink="http://www.w3.org/1999/xlink" xmlns:sketch="http://www.bohemiancoding.com/sketch/ns">
    <!-- Generator: Sketch 3.4.2 (15855) - http://www.bohemiancoding.com/sketch -->
    <title>Shape</title>
    <desc>Created with Sketch.</desc>
    <defs></defs>
    <g id="Home" stroke="none" stroke-width="1" fill="none" fill-rule="evenodd" sketch:type="MSPage">
        <g id="Artboard-1" sketch:type="MSArtboardGroup" transform="translate(-736.000000, -1334.000000)" fill="#F6B536">
            <path d="M758.483146,1334.51214 L740.675202,1334.51214 C740.38964,1334.51214 740.134831,1334.74369 740.134831,1335.029 L740.134831,1350.54366 C740.134831,1351.39363 739.466798,1352.08518 738.616831,1352.08518 L738.575225,1352.08518 C737.725258,1352.08518 737.033708,1351.39363 737.033708,1350.54366 L737.033708,1337.09641 C737.033708,1336.81111 736.802157,1336.57956 736.516854,1336.57956 C736.231551,1336.57956 736,1336.81111 736,1337.09641 L736,1350.54366 C736,1351.96372 737.155169,1353.11889 738.575225,1353.11889 L738.616831,1353.11889 C738.669292,1353.11889 738.721236,1353.11733 738.772921,1353.11423 C738.795663,1353.11733 738.818921,1353.11889 738.842697,1353.11889 L756.41573,1353.11889 C757.840697,1353.11889 759,1351.96372 759,1350.54366 L759,1335.029 C759,1334.74369 758.768449,1334.51214 758.483146,1334.51214 L758.483146,1334.51214 Z M757.966292,1350.54366 C757.966292,1351.39363 757.270865,1352.08518 756.41573,1352.08518 L740.678562,1352.08518 C741.00082,1351.65515 741.168539,1351.1215 741.168539,1350.54366 L741.168539,1335.54585 L757.966292,1335.54585 L757.966292,1350.54366 Z M738.067416,1336.06271 L738.067416,1350.27619 C738.067416,1350.56149 738.298966,1350.79304 738.58427,1350.79304 C738.869573,1350.79304 739.101124,1350.56149 739.101124,1350.27619 L739.101124,1336.06271 C739.101124,1335.7774 738.869573,1335.54585 738.58427,1335.54585 C738.298966,1335.54585 738.067416,1335.7774 738.067416,1336.06271 Z M743.752809,1340.19754 L755.382022,1340.19754 L755.382022,1343.29866 L743.752809,1343.29866 L743.752809,1340.19754 Z M743.235955,1346.39978 L748.404494,1346.39978 C748.689798,1346.39978 748.921348,1346.16823 748.921348,1345.88293 C748.921348,1345.59763 748.689798,1345.36608 748.404494,1345.36608 L743.235955,1345.36608 C742.950652,1345.36608 742.719101,1345.59763 742.719101,1345.88293 C742.719101,1346.16823 742.950652,1346.39978 743.235955,1346.39978 Z M743.235955,1338.13012 L755.898876,1338.13012 C756.18418,1338.13012 756.41573,1337.89857 756.41573,1337.61327 C756.41573,1337.32796 756.18418,1337.09641 755.898876,1337.09641 L743.235955,1337.09641 C742.950652,1337.09641 742.719101,1337.32796 742.719101,1337.61327 C742.719101,1337.89857 742.950652,1338.13012 743.235955,1338.13012 Z M743.235955,1348.4672 L748.404494,1348.4672 C748.689798,1348.4672 748.921348,1348.23565 748.921348,1347.95035 C748.921348,1347.66504 748.689798,1347.43349 748.404494,1347.43349 L743.235955,1347.43349 C742.950652,1347.43349 742.719101,1347.66504 742.719101,1347.95035 C742.719101,1348.23565 742.950652,1348.4672 743.235955,1348.4672 Z M743.235955,1350.53462 L747.11236,1350.53462 C747.397663,1350.53462 747.629213,1350.30306 747.629213,1350.01776 C747.629213,1349.73246 747.397663,1349.50091 747.11236,1349.50091 L743.235955,1349.50091 C742.950652,1349.50091 742.719101,1349.73246 742.719101,1350.01776 C742.719101,1350.30306 742.950652,1350.53462 743.235955,1350.53462 Z M755.640449,1345.36608 L750.47191,1345.36608 C750.186607,1345.36608 749.955056,1345.59763 749.955056,1345.88293 C749.955056,1346.16823 750.186607,1346.39978 750.47191,1346.39978 L755.640449,1346.39978 C755.925753,1346.39978 756.157303,1346.16823 756.157303,1345.88293 C756.157303,1345.59763 755.925753,1345.36608 755.640449,1345.36608 Z M755.640449,1347.43349 L750.47191,1347.43349 C750.186607,1347.43349 749.955056,1347.66504 749.955056,1347.95035 C749.955056,1348.23565 750.186607,1348.4672 750.47191,1348.4672 L755.640449,1348.4672 C755.925753,1348.4672 756.157303,1348.23565 756.157303,1347.95035 C756.157303,1347.66504 755.925753,1347.43349 755.640449,1347.43349 Z M754.348315,1349.50091 L750.47191,1349.50091 C750.186607,1349.50091 749.955056,1349.73246 749.955056,1350.01776 C749.955056,1350.30306 750.186607,1350.53462 750.47191,1350.53462 L754.348315,1350.53462 C754.633618,1350.53462 754.865169,1350.30306 754.865169,1350.01776 C754.865169,1349.73246 754.633618,1349.50091 754.348315,1349.50091 Z" id="Shape" sketch:type="MSShapeGroup"></path>
        </g>
    </g>
</svg>