<?xml version="1.0" encoding="UTF-8" standalone="no"?>
<svg width="108px" height="32px" viewBox="0 0 108 32" version="1.1" xmlns="http://www.w3.org/2000/svg" xmlns:xlink="http://www.w3.org/1999/xlink" xmlns:sketch="http://www.bohemiancoding.com/sketch/ns">
    <!-- Generator: Sketch 3.4.2 (15855) - http://www.bohemiancoding.com/sketch -->
    <title>Group + Shape + Shape + Shape Copy</title>
    <desc>Created with Sketch.</desc>
    <defs></defs>
    <g id="Home" stroke="none" stroke-width="1" fill="none" fill-rule="evenodd" sketch:type="MSPage">
        <g id="Artboard-1" sketch:type="MSArtboardGroup" transform="translate(-1447.000000, -4237.000000)">
            <g id="Group-+-Shape-+-Shape-+-Shape-Copy" sketch:type="MSLayerGroup" transform="translate(1447.000000, 4237.000000)">
                <g id="Group" transform="translate(29.889299, 8.000000)" fill="#3A3A3A" sketch:type="MSShapeGroup">
                    <path d="M4.69229906,4.16281737 C7.10393644,4.16281737 7.92519674,6.10265904 7.92519674,6.10265904 L7.96430437,6.10265904 C7.96430437,6.10265904 7.92519674,5.75240985 7.92519674,5.32133392 L7.92519674,0.323547412 L9.26789214,0.323547412 L9.26789214,14.6568219 L7.96430437,14.6568219 L7.96430437,13.5791321 C7.96430437,13.1345851 8.003412,12.8516915 8.003412,12.8516915 L7.96430437,12.8516915 C7.96430437,12.8516915 7.15607995,14.9127733 4.5489044,14.9127733 C1.88958535,14.9127733 0.220992995,12.7169803 0.220992995,9.5243242 C0.220992995,6.29125476 2.08512351,4.16281737 4.69229906,4.16281737 L4.69229906,4.16281737 Z M4.74444257,13.67343 C6.39999904,13.67343 7.96430437,12.4475578 7.96430437,9.53779532 C7.96430437,7.46324243 6.93447003,5.41563178 4.80962196,5.41563178 C3.04977846,5.41563178 1.61583191,6.95133977 1.61583191,9.53779532 C1.60279603,12.0568953 2.89334793,13.67343 4.74444257,13.67343 L4.74444257,13.67343 Z" id="Shape"></path>
                    <path d="M15.6424364,4.16281737 C18.3799707,4.16281737 19.7878455,6.34513925 19.7878455,8.89118143 C19.7878455,9.13366164 19.7487378,9.60515093 19.7487378,9.60515093 L12.1357852,9.60515093 C12.2009646,12.2320199 13.9347364,13.6599589 15.9813692,13.6599589 C17.7933562,13.6599589 19.0056928,12.4206156 19.0056928,12.4206156 L19.6183791,13.4848343 C19.6183791,13.4848343 18.1713966,14.9127733 15.9422615,14.9127733 C12.9831173,14.9127733 10.7539822,12.7169803 10.7539822,9.55126644 C10.7409463,6.18348578 12.9570455,4.16281737 15.6424364,4.16281737 L15.6424364,4.16281737 Z M18.4190783,8.47357663 C18.340863,6.33166812 17.0763829,5.33480505 15.6033287,5.33480505 C13.9477723,5.33480505 12.5007898,6.41249486 12.1879288,8.47357663 L18.4190783,8.47357663 L18.4190783,8.47357663 Z" id="Shape"></path>
                    <path d="M21.1826844,0.337018535 L22.5253798,0.337018535 L22.5253798,11.9356552 C22.5253798,13.2827674 23.1119943,13.4848343 23.6334294,13.4848343 C23.8159317,13.4848343 23.9723622,13.457892 23.9723622,13.457892 L23.9723622,14.6972353 C23.9723622,14.6972353 23.7377164,14.7376487 23.4769989,14.7376487 C22.6427027,14.7376487 21.1826844,14.4682262 21.1826844,12.2320199 L21.1826844,0.337018535 L21.1826844,0.337018535 Z" id="Shape"></path>
                    <path d="M29.2910003,4.16281737 C32.0285347,4.16281737 33.4364095,6.34513925 33.4364095,8.89118143 C33.4364095,9.13366164 33.3973018,9.60515093 33.3973018,9.60515093 L25.7843492,9.60515093 C25.8495286,12.2320199 27.5833004,13.6599589 29.6299332,13.6599589 C31.4419202,13.6599589 32.6542568,12.4206156 32.6542568,12.4206156 L33.2669431,13.4848343 C33.2669431,13.4848343 31.8199606,14.9127733 29.5908255,14.9127733 C26.6316813,14.9127733 24.4025462,12.7169803 24.4025462,9.55126644 C24.4025462,6.18348578 26.6056095,4.16281737 29.2910003,4.16281737 L29.2910003,4.16281737 Z M32.0806782,8.47357663 C32.0024629,6.33166812 30.7379828,5.33480505 29.2649286,5.33480505 C27.6093721,5.33480505 26.1623897,6.41249486 25.8495286,8.47357663 L32.0806782,8.47357663 L32.0806782,8.47357663 Z" id="Shape"></path>
                    <path d="M38.3770071,17.7012957 C40.306317,17.7012957 41.8445506,16.7583171 41.8445506,14.4816973 L41.8445506,13.5387188 C41.8445506,13.1480562 41.8836582,12.8112781 41.8836582,12.8112781 L41.8445506,12.8112781 C41.2579361,13.9563236 40.2411376,14.6029374 38.7029041,14.6029374 C36.043585,14.6029374 34.2837415,12.4206156 34.2837415,9.33572848 C34.2837415,6.25084139 35.9262621,4.16281737 38.5855812,4.16281737 C41.2057926,4.16281737 41.8575865,5.87364995 41.8575865,5.87364995 L41.8966941,5.87364995 C41.8966941,5.87364995 41.8706224,5.75240985 41.8706224,5.52340076 L41.8706224,4.40529758 L43.1742101,4.40529758 L43.1742101,14.4143417 C43.1742101,17.6743534 40.840788,18.9406389 38.4161148,18.9406389 C37.2689575,18.9406389 36.1218003,18.6308031 35.1571453,18.1189005 L35.6655446,16.973855 C35.6916163,16.9873262 36.9169888,17.7012957 38.3770071,17.7012957 L38.3770071,17.7012957 Z M41.8575865,9.3491996 C41.8575865,6.34513925 40.4757834,5.42910291 38.71594,5.42910291 C36.78663,5.42910291 35.6525087,6.87051303 35.6525087,9.32225736 C35.6525087,11.7740017 36.9300247,13.3635942 38.9114781,13.3635942 C40.4888193,13.3635942 41.8575865,12.3667311 41.8575865,9.3491996 L41.8575865,9.3491996 Z" id="Shape"></path>
                    <path d="M50.6307322,8.32539428 L51.1782391,8.32539428 L51.1782391,8.05597183 C51.1782391,6.07571679 50.1353688,5.40216066 48.7144582,5.40216066 C47.0719376,5.40216066 45.9117445,6.38555262 45.9117445,6.38555262 L45.2860223,5.32133392 C45.2860223,5.32133392 46.5896101,4.16281737 48.8187452,4.16281737 C51.2043108,4.16281737 52.5339704,5.52340076 52.5339704,8.0963852 L52.5339704,14.6568219 L51.2564543,14.6568219 L51.2564543,13.5387188 C51.2564543,13.0268161 51.295562,12.6765669 51.295562,12.6765669 L51.2564543,12.6765669 C51.2564543,12.6765669 50.4221582,14.8993021 47.9453414,14.8993021 C46.2897849,14.8993021 44.5690491,13.9024391 44.5690491,11.8548284 C44.5429773,8.40622102 48.9099963,8.32539428 50.6307322,8.32539428 L50.6307322,8.32539428 Z M48.1408796,13.7273145 C50.0310818,13.7273145 51.1782391,11.6931749 51.1782391,9.91498676 L51.1782391,9.47043971 L50.6046604,9.47043971 C49.0403551,9.47043971 45.9247803,9.53779532 45.9247803,11.8009439 C45.9247803,12.7573936 46.6547895,13.7273145 48.1408796,13.7273145 L48.1408796,13.7273145 Z" id="Shape"></path>
                    <path d="M54.8673925,5.69852536 L53.5638047,5.69852536 L53.5638047,4.54000881 L54.8804283,4.54000881 L54.8804283,1.58983294 L56.197052,1.58983294 L56.197052,4.54000881 L58.6869046,4.54000881 L58.6869046,5.69852536 L56.197052,5.69852536 L56.197052,10.7906097 C56.197052,13.2019407 57.6831421,13.4983054 58.4261871,13.4983054 C58.6999405,13.4983054 58.8824428,13.457892 58.8824428,13.457892 L58.8824428,14.6972353 C58.8824428,14.6972353 58.6608329,14.7376487 58.3088642,14.7376487 C57.1617069,14.7376487 54.8543566,14.3469861 54.8543566,10.925321 L54.8543566,5.69852536 L54.8673925,5.69852536 Z" id="Shape"></path>
                    <path d="M64.2401886,4.16281737 C66.9777229,4.16281737 68.3855977,6.34513925 68.3855977,8.89118143 C68.3855977,9.13366164 68.34649,9.60515093 68.34649,9.60515093 L60.7335374,9.60515093 C60.7987168,12.2320199 62.5324886,13.6599589 64.5791214,13.6599589 C66.3911084,13.6599589 67.603445,12.4206156 67.603445,12.4206156 L68.2161313,13.4848343 C68.2161313,13.4848343 66.7691488,14.9127733 64.5400137,14.9127733 C61.5808695,14.9127733 59.3517344,12.7169803 59.3517344,9.55126644 C59.3517344,6.18348578 61.5547977,4.16281737 64.2401886,4.16281737 L64.2401886,4.16281737 Z M67.0168305,8.47357663 C66.9386152,6.33166812 65.6741351,5.33480505 64.2010809,5.33480505 C62.5455245,5.33480505 61.098542,6.41249486 60.785681,8.47357663 L67.0168305,8.47357663 L67.0168305,8.47357663 Z" id="Shape"></path>
                    <path d="M69.845616,0.337018535 L71.2404549,0.337018535 L71.2404549,2.07479336 L69.845616,2.07479336 L69.845616,0.337018535 L69.845616,0.337018535 Z M69.8847236,4.40529758 L71.227419,4.40529758 L71.227419,14.6568219 L69.8847236,14.6568219 L69.8847236,4.40529758 L69.8847236,4.40529758 Z" id="Shape"></path>
                    <path d="M73.7694152,5.69852536 L72.4658274,5.69852536 L72.4658274,4.54000881 L73.7824511,4.54000881 L73.7824511,1.58983294 L75.0990747,1.58983294 L75.0990747,4.54000881 L77.5889274,4.54000881 L77.5889274,5.69852536 L75.0990747,5.69852536 L75.0990747,10.7906097 C75.0990747,13.2019407 76.5851648,13.4983054 77.3282098,13.4983054 C77.6019632,13.4983054 77.7844655,13.457892 77.7844655,13.457892 L77.7844655,14.6972353 C77.7844655,14.6972353 77.5628556,14.7376487 77.2108869,14.7376487 C76.0637297,14.7376487 73.7563793,14.3469861 73.7563793,10.925321 L73.7563793,5.69852536 L73.7694152,5.69852536 Z" id="Shape"></path>
                </g>
                <g id="Shape-+-Shape-+-Shape" fill="#262626" sketch:type="MSShapeGroup">
                    <path d="M21.2946179,14.1849223 L22.7638013,12.6666855 C22.5758825,12.4548385 22.3110878,12.3136071 22.0121261,12.3136071 L19.0737592,12.3136071 L19.0737592,3.95447742 L20.3721074,3.95447742 C20.4062744,3.65436083 20.3208568,3.34541728 20.0987709,3.11591636 L17.4422823,0.370732258 C17.0664447,-0.017653917 16.4428959,-0.017653917 16.0670583,0.370732258 L13.4105696,3.11591636 C13.1884838,3.34541728 13.0945244,3.65436083 13.1372332,3.95447742 L14.4355813,3.95447742 L14.4355813,12.3136071 L9.07989524,12.3136071 C9.00301936,12.3136071 8.92614349,12.3224341 8.84926761,12.340088 C3.93775325,12.7196472 0.0597923487,16.9654143 0.0597923487,22.138012 C0.0597923487,27.5665915 4.32213264,31.9712438 9.57531756,31.9712438 C14.7943354,31.9712438 19.0395922,27.6195532 19.082301,22.2351085 L19.082301,22.1909737 L19.082301,17.1154726 L22.0206679,17.1154726 C22.3196296,17.1154726 22.5844243,16.9830682 22.7723431,16.7623942 L21.3031597,15.2441574 C21.0127397,14.9528677 21.0127397,14.476212 21.2946179,14.1849223 L21.2946179,14.1849223 Z M9.56677579,27.0899357 C6.91882892,27.0899357 4.77484613,24.8743691 4.77484613,22.138012 C4.77484613,19.4016548 6.91882892,17.1860882 9.56677579,17.1860882 L9.6607352,17.1860882 L9.68636049,17.1860882 L13.5643214,17.1860882 C13.9914096,17.1860882 14.3416219,17.5479935 14.3416219,17.9893415 L14.3416219,21.714318 C14.3501637,21.8555493 14.3587055,21.9879537 14.3587055,22.129185 C14.3587055,24.8743691 12.2147227,27.0899357 9.56677579,27.0899357 L9.56677579,27.0899357 Z" id="Shape"></path>
                    <path d="M14.3245384,22.6764564 C14.0682855,25.1568318 12.0353456,27.0899357 9.56677579,27.0899357 C6.91882892,27.0899357 4.77484613,24.8743691 4.77484613,22.138012 C4.77484613,19.4016548 6.91882892,17.1860882 9.56677579,17.1860882 L9.6607352,17.1860882 L9.68636049,17.1860882 L13.5643214,17.1860882 C13.9487008,17.1860882 14.2732878,17.4773779 14.3330802,17.865764 L14.3330802,12.3047802 L9.07989524,12.3047802 C9.00301936,12.3047802 8.92614349,12.3136071 8.84926761,12.3312611 C3.93775325,12.7108203 0.0597923487,16.9565873 0.0597923487,22.129185 C0.0597923487,27.5577645 4.32213264,31.9624168 9.57531756,31.9624168 C11.3092957,31.9624168 12.9407726,31.485761 14.3330802,30.6472 L14.3330802,22.6764564 L14.3245384,22.6764564 Z" id="Shape"></path>
                    <path d="M21.2946179,14.1849223 L22.7638013,12.6666855 C22.5758825,12.4548385 22.3110878,12.3136071 22.0121261,12.3136071 L19.1164681,12.3136071 L19.1164681,17.1154726 L22.0121261,17.1154726 C22.3110878,17.1154726 22.5758825,16.9830682 22.7638013,16.7623942 L21.2946179,15.2441574 C21.0127397,14.9528677 21.0127397,14.476212 21.2946179,14.1849223 L21.2946179,14.1849223 Z" id="Shape"></path>
                </g>
            </g>
        </g>
    </g>
</svg>