<svg xmlns="http://www.w3.org/2000/svg" xmlns:xlink="http://www.w3.org/1999/xlink" version="1.1" x="0px" y="0px" viewBox="0 0 60 75" style="enable-background:new 0 0 60 60;" xml:space="preserve"><g><path d="M29.5,60c-4.847,0-9.474-1.624-13.152-4.593l-1.579,2.254c-1.046,1.494-2.948,1.598-4.998,0.164l-0.106-0.074   C8.65,57.042,7.5,56.238,7.5,55c0-0.968,0.199-1.357,0.589-1.777c0.038-0.041,0.082-0.085,0.127-0.148l2.967-4.238   c-1.132-2.409-1.684-4.65-1.684-6.835c0-9.925,8.972-18,20-18c2.169,0,4.308,0.322,6.373,0.959C36.71,22.607,38.92,21,41.5,21   c4.132,0,5,2.175,5,4v7.593c0.747,1.082,1.357,2.214,1.825,3.373c0.192,0.021,0.38,0.031,0.558,0.031   c1.617,0,1.617-0.726,1.617-0.997c0-0.553,0.448-1,1-1c0.553,0,1,0.447,1,1v12c0,0.553-0.447,1-1,1c-0.552,0-1-0.447-1-1   c0-0.271,0-0.982-1.58-0.996c-0.363,1.277-0.898,2.563-1.596,3.835l2.265,3.234c1.078,1.538,0.496,3.313-1.555,4.752   c-2.05,1.434-3.952,1.327-4.998-0.163l-1.174-1.678C38.293,58.581,33.943,60,29.5,60z M16.16,52.932   c0.246,0,0.485,0.092,0.67,0.258c3.435,3.104,7.934,4.812,12.669,4.812c4.347,0,8.591-1.499,11.953-4.221   c0.216-0.175,0.493-0.255,0.769-0.214c0.274,0.039,0.521,0.189,0.68,0.418l1.772,2.531c0.433,0.617,1.199,0.381,2.214-0.328   c0.746-0.523,1.537-1.289,1.063-1.967l-2.627-3.753c-0.224-0.319-0.241-0.741-0.043-1.079c0.895-1.522,1.528-3.061,1.882-4.567   c0.096-0.41,0.439-0.716,0.857-0.765c0.896-0.104,1.789-0.043,2.479,0.192v-6.496c-0.839,0.284-1.946,0.319-3.092,0.097   c-0.347-0.067-0.632-0.313-0.75-0.645c-0.459-1.279-1.123-2.528-1.972-3.714c-0.121-0.171-0.187-0.373-0.187-0.582V25   c0-0.968-0.231-2-3-2c-1.981,0-3.638,1.43-3.937,3.4c-0.045,0.295-0.221,0.557-0.479,0.709c-0.258,0.154-0.572,0.183-0.854,0.08   C34.068,26.4,31.803,26,29.5,26c-9.925,0-18,7.178-18,16c0,2.029,0.567,4.148,1.734,6.48c0.165,0.328,0.136,0.72-0.075,1.021   L9.854,54.22c-0.109,0.156-0.21,0.267-0.301,0.365C9.525,54.598,9.499,54.689,9.499,55c0.074,0.247,0.909,0.831,1.311,1.111   l0.108,0.074c1.013,0.709,1.779,0.948,2.213,0.328l2.209-3.156c0.165-0.234,0.422-0.388,0.707-0.42   C16.085,52.934,16.123,52.932,16.16,52.932z"/><path d="M27.5,20c-5.514,0-10-4.486-10-10s4.486-10,10-10c5.514,0,10,4.486,10,10S33.014,20,27.5,20z M27.5,2c-4.411,0-8,3.589-8,8   s3.589,8,8,8s8-3.589,8-8S31.911,2,27.5,2z"/><g><path d="M27.5,15c-1.654,0-3-1.346-3-3c0-0.553,0.448-1,1-1s1,0.447,1,1c0,0.552,0.449,1,1,1s1-0.448,1-1s-0.449-1-1-1    c-1.654,0-3-1.346-3-3s1.346-3,3-3s3,1.346,3,3c0,0.553-0.448,1-1,1s-1-0.447-1-1c0-0.552-0.449-1-1-1s-1,0.448-1,1s0.449,1,1,1    c1.654,0,3,1.346,3,3S29.154,15,27.5,15z"/><path d="M27.5,7c-0.552,0-1-0.447-1-1V5c0-0.553,0.448-1,1-1s1,0.447,1,1v1C28.5,6.553,28.052,7,27.5,7z"/><path d="M27.5,16c-0.552,0-1-0.447-1-1v-1c0-0.553,0.448-1,1-1s1,0.447,1,1v1C28.5,15.553,28.052,16,27.5,16z"/></g><path d="M22.501,33c-0.362,0-0.711-0.197-0.889-0.54c-0.254-0.491-0.062-1.095,0.429-1.349C24.635,29.77,27.718,29,30.5,29   c1.945,0,4.066,0.13,6.378,1.074c0.511,0.209,0.757,0.792,0.548,1.304c-0.209,0.511-0.795,0.757-1.304,0.548   C34.24,31.157,32.514,31,30.5,31c-2.473,0-5.222,0.688-7.541,1.889C22.812,32.964,22.656,33,22.501,33z"/></g></svg>