<svg xmlns="http://www.w3.org/2000/svg" xmlns:xlink="http://www.w3.org/1999/xlink" xmlns:sketch="http://www.bohemiancoding.com/sketch/ns" viewBox="0 0 22 27.5" version="1.1" x="0px" y="0px"><title>business_coin_money_salary_outline_stroke</title><description>Created with Sketch.</description><defs><path d="M18,11 C18,6.58172178 14.4182782,3 10,3 C5.58172178,3 2,6.58172178 2,11 C2,15.4182782 5.58172178,19 10,19 C14.4182782,19 18,15.4182782 18,11 Z M3,11 C3,7.13400653 6.13400653,4 10,4 C13.8659935,4 17,7.13400653 17,11 C17,14.8659935 13.8659935,18 10,18 C6.13400653,18 3,14.8659935 3,11 Z M10.3817635,7.5 L10.3817635,8.19083585 C10.6182377,8.23548193 10.8116225,8.3271225 10.9619238,8.46576032 C11.1122252,8.60439814 11.2555103,8.81705127 11.3917836,9.10372608 L10.8056112,9.48791541 C10.6292576,9.11194844 10.398799,8.92396777 10.1142285,8.92396777 C9.93787487,8.92396777 9.79158375,8.98506149 9.6753507,9.10725076 C9.55911766,9.22944002 9.501002,9.38217431 9.501002,9.56545821 C9.501002,9.73229355 9.54809572,9.87092929 9.64228457,9.98136959 C9.7344694,10.0894601 9.92084028,10.2175219 10.2014028,10.3655589 C10.443889,10.4947976 10.6442878,10.6163976 10.8026052,10.7303625 C10.9609226,10.8443275 11.0801599,10.9541787 11.1603206,11.0599194 C11.3867747,11.3465942 11.5,11.6931836 11.5,12.0996979 C11.5,12.4991628 11.3977966,12.8516265 11.1933868,13.1570997 C10.990981,13.4602231 10.7204426,13.664652 10.3817635,13.7703927 L10.3817635,14.5 L9.85571142,14.5 L9.85571142,13.7915408 C9.46292389,13.7163474 9.16332769,13.5577387 8.95691383,13.31571 C8.75049997,13.0736812 8.59819688,12.7000697 8.5,12.194864 L9.16132265,12.0327291 C9.25150346,12.3898977 9.3617228,12.6448465 9.49198397,12.7975831 C9.62825719,12.9432703 9.80961811,13.0161128 10.0360721,13.0161128 C10.2565141,13.0161128 10.440881,12.9326964 10.5891784,12.765861 C10.7354717,12.6013755 10.8086172,12.3887224 10.8086172,12.1278953 C10.8086172,11.8952657 10.7474956,11.7084599 10.6252505,11.5674723 C10.5631259,11.4993283 10.4714435,11.4223737 10.3502004,11.3366062 C10.2289573,11.2508388 10.0741492,11.1574359 9.88577154,11.0563948 C9.49699204,10.8519627 9.24148358,10.6639821 9.11923848,10.4924471 C8.92484873,10.2363196 8.82765531,9.92967617 8.82765531,9.57250755 C8.82765531,9.40332242 8.85070117,9.24588861 8.89679359,9.10020141 C8.942886,8.95451421 9.0095186,8.8223403 9.09669339,8.70367573 C9.18386817,8.58501116 9.29158253,8.48220923 9.41983968,8.39526687 C9.54809683,8.30832451 9.69338596,8.24018152 9.85571142,8.19083585 L9.85571142,7.5 L10.3817635,7.5 Z" id="a"/></defs><g stroke="none" stroke-width="1" fill="none" fill-rule="evenodd" sketch:type="MSPage"><g><use fill="#000000" fill-rule="evenodd" sketch:type="MSShapeGroup" xlink:href="#a"/><use fill="none" xlink:href="#a"/></g></g><text x="0" y="37" fill="#000000" font-size="5px" font-weight="bold" font-family="'Helvetica Neue', Helvetica, Arial-Unicode, Arial, Sans-serif">Created by Pham Thi Dieu Linh</text><text x="0" y="42" fill="#000000" font-size="5px" font-weight="bold" font-family="'Helvetica Neue', Helvetica, Arial-Unicode, Arial, Sans-serif">from the Noun Project</text></svg>