<?xml version="1.0" encoding="UTF-8" standalone="no"?>
<svg width="19px" height="21px" viewBox="0 0 19 21" version="1.1" xmlns="http://www.w3.org/2000/svg" xmlns:xlink="http://www.w3.org/1999/xlink" xmlns:sketch="http://www.bohemiancoding.com/sketch/ns">
    <!-- Generator: Sketch 3.4.2 (15855) - http://www.bohemiancoding.com/sketch -->
    <title>Shape</title>
    <desc>Created with Sketch.</desc>
    <defs></defs>
    <g id="Home" stroke="none" stroke-width="1" fill="none" fill-rule="evenodd" sketch:type="MSPage">
        <g id="Artboard-1" sketch:type="MSArtboardGroup" transform="translate(-1307.000000, -1276.000000)" fill="#F6B536">
            <path d="M1323.5383,1278.48224 L1321.04051,1278.48224 L1321.04051,1277.47591 C1321.04051,1277.01885 1320.67166,1276.65 1320.2146,1276.65 C1319.75754,1276.65 1319.38869,1277.01885 1319.38869,1277.47591 L1319.38869,1278.48224 L1313.37476,1278.48224 L1313.37476,1277.47591 C1313.37476,1277.01885 1313.00591,1276.65 1312.54885,1276.65 C1312.09179,1276.65 1311.72294,1277.01885 1311.72294,1277.47591 L1311.72294,1278.48224 L1309.4617,1278.48224 C1308.10255,1278.48224 1307,1279.5848 1307,1280.94394 L1307,1294.14251 C1307,1295.50166 1308.10255,1296.60421 1309.4617,1296.60421 L1323.5383,1296.60421 C1324.89745,1296.60421 1326,1295.50166 1326,1294.14251 L1326,1280.94394 C1326,1279.58881 1324.89344,1278.48224 1323.5383,1278.48224 L1323.5383,1278.48224 Z M1309.45769,1280.13808 L1311.71893,1280.13808 L1311.71893,1281.0562 C1311.71893,1281.51326 1312.08778,1281.88212 1312.54484,1281.88212 C1313.0019,1281.88212 1313.37075,1281.51326 1313.37075,1281.0562 L1313.37075,1280.13808 L1319.38067,1280.13808 L1319.38067,1281.0562 C1319.38067,1281.51326 1319.74953,1281.88212 1320.20658,1281.88212 C1320.66364,1281.88212 1321.0325,1281.51326 1321.0325,1281.0562 L1321.0325,1280.13808 L1323.53028,1280.13808 C1323.97531,1280.13808 1324.33615,1280.49891 1324.33615,1280.94394 L1324.33615,1283.59408 L1308.65183,1283.59408 L1308.65183,1280.94394 C1308.65183,1280.49891 1309.01266,1280.13808 1309.45769,1280.13808 L1309.45769,1280.13808 Z M1323.5383,1294.95238 L1309.45769,1294.95238 C1309.01266,1294.95238 1308.65183,1294.59155 1308.65183,1294.14652 L1308.65183,1285.24992 L1324.34417,1285.24992 L1324.34417,1294.14652 C1324.34417,1294.59155 1323.98333,1294.95238 1323.5383,1294.95238 L1323.5383,1294.95238 Z" id="Shape" sketch:type="MSShapeGroup"></path>
        </g>
    </g>
</svg>