<?xml version="1.0" encoding="UTF-8" standalone="no"?>
<svg width="21px" height="22px" viewBox="0 0 21 22" version="1.1" xmlns="http://www.w3.org/2000/svg" xmlns:xlink="http://www.w3.org/1999/xlink" xmlns:sketch="http://www.bohemiancoding.com/sketch/ns">
    <!-- Generator: Sketch 3.4.2 (15855) - http://www.bohemiancoding.com/sketch -->
    <title>Shape</title>
    <desc>Created with Sketch.</desc>
    <defs></defs>
    <g id="Home" stroke="none" stroke-width="1" fill="none" fill-rule="evenodd" sketch:type="MSPage">
        <g id="Artboard-1" sketch:type="MSArtboardGroup" transform="translate(-737.000000, -1275.000000)" fill="#F6B536">
            <path d="M756.567218,1280.94631 L753.596429,1280.94631 C754.710475,1279.91796 754.967563,1278.46113 754.224865,1277.17569 C753.396472,1275.74743 751.596859,1275.26182 750.111465,1276.06165 C748.511809,1276.91861 747.569154,1278.46113 747.054979,1279.66087 C746.540804,1278.46113 745.59815,1276.91861 743.998494,1276.06165 L743.998494,1276.06165 C742.5131,1275.26182 740.713487,1275.74743 739.885094,1277.17569 C739.142396,1278.46113 739.399484,1279.8894 740.51353,1280.94631 L737.571306,1280.94631 C737.257088,1280.94631 737,1281.2034 737,1281.51762 L737,1296.42869 C737,1296.74291 737.257088,1297 737.571306,1297 L756.567218,1297 C756.881437,1297 757.138524,1296.74291 757.138524,1296.42869 L757.138524,1281.51762 C757.138524,1281.2034 756.881437,1280.94631 756.567218,1280.94631 L756.567218,1280.94631 Z M755.995913,1285.77384 L749.054549,1285.77384 L749.054549,1282.08892 L755.995913,1282.08892 L755.995913,1285.77384 L755.995913,1285.77384 Z M744.912583,1285.77384 L738.114046,1285.77384 L738.114046,1282.08892 L744.912583,1282.08892 L744.912583,1285.77384 L744.912583,1285.77384 Z M738.114046,1286.91646 L744.912583,1286.91646 L744.912583,1295.85739 L738.114046,1295.85739 L738.114046,1286.91646 L738.114046,1286.91646 Z M746.055195,1282.11749 L746.055195,1282.11749 C746.512239,1282.11749 746.855022,1282.11749 747.026414,1282.08892 C747.197806,1282.08892 747.512024,1282.08892 747.883373,1282.11749 L747.883373,1295.88595 L746.055195,1295.88595 L746.055195,1282.11749 L746.055195,1282.11749 Z M749.025984,1286.91646 L755.967348,1286.91646 L755.967348,1295.85739 L749.025984,1295.85739 L749.025984,1286.91646 L749.025984,1286.91646 Z M750.62564,1277.09 C751.568294,1276.57582 752.710905,1276.89004 753.22508,1277.77556 C753.767821,1278.68965 753.482168,1279.68944 752.482383,1280.37501 C751.968208,1280.74635 750.368552,1280.91775 748.883157,1280.94631 L747.769111,1280.94631 C748.111895,1279.91796 748.940288,1278.00409 750.62564,1277.09 L750.62564,1277.09 Z M741.59901,1280.37501 C740.627791,1279.68944 740.342138,1278.68965 740.856313,1277.77556 C741.199097,1277.17569 741.827533,1276.86148 742.484534,1276.86148 C742.798752,1276.86148 743.141536,1276.94717 743.455754,1277.11856 L743.455754,1277.11856 C745.141105,1278.03265 745.969499,1279.94653 746.312282,1280.97488 L745.283932,1280.97488 C743.741407,1280.88918 742.113186,1280.74635 741.59901,1280.37501 L741.59901,1280.37501 Z" id="Shape" sketch:type="MSShapeGroup"></path>
        </g>
    </g>
</svg>