<?xml version="1.0" encoding="UTF-8" standalone="no"?>
<svg width="21px" height="22px" viewBox="0 0 21 22" version="1.1" xmlns="http://www.w3.org/2000/svg" xmlns:xlink="http://www.w3.org/1999/xlink" xmlns:sketch="http://www.bohemiancoding.com/sketch/ns">
    <!-- Generator: Sketch 3.4.2 (15855) - http://www.bohemiancoding.com/sketch -->
    <title>Shape + Shape</title>
    <desc>Created with Sketch.</desc>
    <defs></defs>
    <g id="Home" stroke="none" stroke-width="1" fill="none" fill-rule="evenodd" sketch:type="MSPage">
        <g id="Artboard-1" sketch:type="MSArtboardGroup" transform="translate(-1019.000000, -1331.000000)" fill="#F6B536">
            <g id="Shape-+-Shape" sketch:type="MSLayerGroup" transform="translate(1019.500000, 1331.656500)">
                <path d="M10.25,20.3669537 C4.67746479,20.3669537 0.144366197,15.8335664 0.144366197,10.2613199 C0.144366197,4.68907342 4.67746479,0.155686094 10.25,0.155686094 C15.8222465,0.155686094 20.3556338,4.68907342 20.3556338,10.2613199 C20.3556338,15.8335664 15.8222465,20.3669537 10.25,20.3669537 L10.25,20.3669537 Z M10.25,2.06247483 C5.72902817,2.06247483 2.05115493,5.74034807 2.05115493,10.2613199 C2.05115493,14.7822917 5.72902817,18.460165 10.25,18.460165 C14.7706831,18.460165 18.4488451,14.7822917 18.4488451,10.2613199 C18.4488451,5.74034807 14.7706831,2.06247483 10.25,2.06247483 L10.25,2.06247483 Z" id="Shape" sketch:type="MSShapeGroup"></path>
                <path d="M7.82522535,14.9653481 C7.86969014,14.76901 7.93609859,14.5085734 8.02502817,14.1849044 L9.22326761,9.80801004 C9.23626056,9.75719314 9.24694366,9.70637624 9.25647183,9.65555933 C9.266,9.60503116 9.27090845,9.55739032 9.27090845,9.51292553 C9.27090845,9.25306638 9.18861972,9.09137624 9.02404225,9.02756638 C8.85917606,8.96433398 8.5583169,8.92304525 8.12117606,8.90398891 L8.12117606,8.39004525 C8.48671127,8.3646368 9.01740141,8.31237624 9.71324648,8.23297483 C10.4093803,8.15386215 10.9022465,8.08543257 11.1918451,8.02855229 L12.0233944,7.86657342 L10.5104366,13.4142776 C10.3836831,13.8898199 10.2982183,14.219841 10.2534648,14.4040523 C10.1394155,14.8735312 10.0819577,15.1781438 10.0819577,15.3173129 C10.0819577,15.4570593 10.1137183,15.5474326 10.1775282,15.5884326 C10.2407606,15.63001 10.3106338,15.65051 10.3871479,15.65051 C10.5843521,15.65051 10.8289085,15.4824678 11.1213944,15.1460945 C11.414169,14.81001 11.6717183,14.4577565 11.894331,14.0899114 L12.3225211,14.3659396 C11.6873099,15.2982565 11.2010845,15.9262495 10.8641338,16.2499185 C10.3115,16.7829185 9.72104225,17.0494185 9.0921831,17.0494185 C8.73646479,17.0494185 8.41712676,16.9402776 8.13474648,16.720841 C7.85207746,16.5022706 7.71088732,16.1676298 7.71088732,15.7169185 C7.71088732,15.5586931 7.749,15.3080734 7.82522535,14.9653481 L7.82522535,14.9653481 Z M12.4082746,3.89852412 C12.6620704,4.1523199 12.7891127,4.46010863 12.7891127,4.82160159 C12.7891127,5.18309454 12.6620704,5.49261567 12.4082746,5.74929877 C12.1544789,6.0062706 11.8469789,6.13475652 11.4851972,6.13475652 C11.1237042,6.13475652 10.8144718,6.0062706 10.5575,5.74929877 C10.3005282,5.49232694 10.1720423,5.18309454 10.1720423,4.82160159 C10.1720423,4.46010863 10.3005282,4.15260863 10.5575,3.89852412 C10.8144718,3.64501708 11.1237042,3.51797483 11.4851972,3.51797483 C11.8466901,3.51797483 12.1544789,3.64472835 12.4082746,3.89852412 L12.4082746,3.89852412 Z" id="Shape" sketch:type="MSShapeGroup"></path>
            </g>
        </g>
    </g>
</svg>