<svg xmlns:dc="http://purl.org/dc/elements/1.1/" xmlns:cc="http://creativecommons.org/ns#" xmlns:rdf="http://www.w3.org/1999/02/22-rdf-syntax-ns#" xmlns:svg="http://www.w3.org/2000/svg" xmlns="http://www.w3.org/2000/svg" xmlns:sodipodi="http://sodipodi.sourceforge.net/DTD/sodipodi-0.dtd" xmlns:inkscape="http://www.inkscape.org/namespaces/inkscape" version="1.1" x="0px" y="0px" viewBox="0 0 100 125"><g transform="translate(0,-952.36218)"><path style="" d="M 30 5 C 27.230001 5 25 7.2300013 25 10 L 25 90 C 25 92.769999 27.230001 95 30 95 L 70 95 C 72.769999 95 75 92.769999 75 90 L 75 10 C 75 7.2300013 72.769999 5 70 5 L 30 5 z M 38.21875 9.09375 L 61.78125 9.09375 L 61.78125 11.25 L 38.21875 11.25 L 38.21875 9.09375 z M 26.8125 15.03125 L 73.1875 15.03125 L 73.1875 84.96875 L 26.8125 84.96875 L 26.8125 15.03125 z M 49.90625 85.8125 C 52.261989 85.8125 54.1875 87.78245 54.1875 90.1875 C 54.1875 92.59255 52.261989 94.53125 49.90625 94.53125 C 47.550511 94.53125 45.65625 92.59255 45.65625 90.1875 C 45.65625 87.78245 47.550511 85.8125 49.90625 85.8125 z " transform="translate(0,952.36218)" fill="#000000" fill-opacity="1" stroke="#000000" stroke-width="1.06066012000000010"/></g></svg>
