<svg xmlns="http://www.w3.org/2000/svg" xmlns:xlink="http://www.w3.org/1999/xlink" version="1.1" x="0px" y="0px" viewBox="0 0 100 125" enable-background="new 0 0 100 100" xml:space="preserve"><rect fill="none" width="100" height="100"/><path d="M50.002,28.42c6.457,0,11.707-5.253,11.707-11.709S56.459,5,50.002,5s-11.709,5.255-11.709,11.711  S43.546,28.42,50.002,28.42z M50.002,7.562c5.042,0,9.146,4.104,9.146,9.149s-4.104,9.149-9.146,9.149  c-5.045,0-9.149-4.104-9.149-9.149S44.958,7.562,50.002,7.562z M48.721,21.265v-9.107c0-0.708,0.573-1.279,1.281-1.279  s1.281,0.571,1.281,1.279v9.107c0,0.708-0.573,1.279-1.281,1.279S48.721,21.973,48.721,21.265z M79.144,48.012  c4.832-9.069,1.283-19.403-5.038-25.021c-0.662-0.594-1.592-0.794-2.446-0.537c-0.852,0.258-1.507,0.941-1.733,1.804  c-0.529,2.026-3.757,5.187-11.056,8.146c-2.822-0.726-5.792-1.137-8.87-1.137c-3.079,0-6.05,0.411-8.87,1.137  c-7.301-2.959-10.526-6.12-11.058-8.146c-0.222-0.863-0.881-1.546-1.733-1.804c-0.85-0.258-1.777-0.053-2.446,0.537  c-6.322,5.618-9.866,15.952-5.036,25.021c-1.882,3.654-2.962,7.702-2.962,11.982c0,5.509,1.736,10.83,5.036,15.447l1.151,17.17  C24.17,93.958,25.287,95,26.635,95h14.082c1.414,0,2.563-1.146,2.563-2.558v-4.367c4.433,0.858,9.009,0.858,13.442,0v4.367  c0,1.411,1.146,2.558,2.561,2.558h14.084c1.348,0,2.462-1.042,2.551-2.389l1.153-17.17c3.3-4.617,5.036-9.938,5.036-15.447  C82.105,55.714,81.025,51.666,79.144,48.012z M72.925,29.263c2.566,3.43,4.361,8.445,2.813,13.629  c-2.711-3.257-6.152-5.99-10.133-7.982C68.346,33.428,71.093,31.544,72.925,29.263z M27.073,29.263  c1.841,2.284,4.59,4.156,7.335,5.636c-3.994,1.996-7.447,4.741-10.163,8.009C22.69,37.719,24.504,32.697,27.073,29.263z   M72.518,72.993c-0.345,0.452-0.521,0.996-0.521,1.539L70.97,89.88h-9.128v-5.057c0-0.809-0.38-1.566-1.025-2.051  c-0.646-0.484-1.482-0.635-2.255-0.406c-5.586,1.64-11.537,1.64-17.124,0c-0.77-0.224-1.607-0.078-2.256,0.406  c-0.644,0.484-1.025,1.242-1.025,2.051v5.057h-9.128l-1.025-15.315c0.007-0.557-0.169-1.109-0.519-1.571  c-2.926-3.864-4.469-8.358-4.469-12.999c0-12.64,11.421-22.958,25.704-23.551v5.977c0,0.708,0.573,1.281,1.281,1.281  s1.281-0.573,1.281-1.281v-5.977c14.28,0.594,25.704,10.912,25.704,23.551C76.985,64.635,75.438,69.129,72.518,72.993z   M55.241,64.219c-0.048-0.031-0.099-0.059-0.148-0.091c-0.555-1.759-1.887-3.905-4.755-6.239c-0.548-0.448-1.354-0.365-1.802,0.183  c-0.443,0.548-0.363,1.352,0.185,1.8c1.332,1.087,2.369,2.192,3.069,3.271c-1.397-0.064-2.768,0.292-3.868,1.077  c-2.565,1.841-2.846,5.057-1.916,6.56c0.525,0.84,1.543,1.498,2.656,1.717c0.946,0.188,2.4,0.169,4.01-0.986  c1.373-0.981,2.271-2.312,2.61-3.823c0.971,1.339,1.327,3.225,0.984,5.431c-0.107,0.699,0.368,1.353,1.069,1.457  c0.063,0.015,0.132,0.019,0.198,0.019c0.619,0,1.165-0.452,1.263-1.082C59.432,69.385,58.14,66,55.241,64.219z M51.183,69.426  c-0.687,0.493-1.391,0.681-2.021,0.558c-0.53-0.105-0.881-0.393-0.982-0.562c-0.196-0.315-0.278-2.037,1.236-3.125  c0.564-0.401,1.283-0.603,2.04-0.603c0.461,0,0.943,0.073,1.406,0.224c0.017,0.165,0.021,0.324,0.017,0.484  C52.827,68.01,51.793,68.987,51.183,69.426z"/><text x="0" y="115" fill="#000000" font-size="5px" font-weight="bold" font-family="'Helvetica Neue', Helvetica, Arial-Unicode, Arial, Sans-serif">Created by hunotika</text><text x="0" y="120" fill="#000000" font-size="5px" font-weight="bold" font-family="'Helvetica Neue', Helvetica, Arial-Unicode, Arial, Sans-serif">from the Noun Project</text></svg>