<?xml version="1.0" encoding="UTF-8" standalone="no"?>
<svg width="18px" height="17px" viewBox="0 0 18 17" version="1.1" xmlns="http://www.w3.org/2000/svg" xmlns:xlink="http://www.w3.org/1999/xlink" xmlns:sketch="http://www.bohemiancoding.com/sketch/ns">
    <!-- Generator: Sketch 3.4.2 (15855) - http://www.bohemiancoding.com/sketch -->
    <title>Shape</title>
    <desc>Created with Sketch.</desc>
    <defs></defs>
    <g id="Home" stroke="none" stroke-width="1" fill="none" fill-rule="evenodd" sketch:type="MSPage">
        <g id="Artboard-1" sketch:type="MSArtboardGroup" transform="translate(-451.000000, -1335.000000)" stroke="#F6B536">
            <path d="M452.636559,1347.02426 L458.725181,1341.68457 C458.33064,1340.0418 458.849431,1338.23425 460.201651,1337.02807 C461.73929,1335.67815 463.900472,1335.53211 465.60365,1336.46723 L463.317836,1338.46249 L465.376559,1340.83165 L467.660844,1338.81651 C468.389903,1340.62406 467.932664,1342.74395 466.394261,1344.0954 C465.043187,1345.29967 463.194733,1345.57073 461.61504,1344.94642 L455.523742,1350.28725 C454.610792,1351.07824 453.238692,1350.99452 452.449993,1350.1003 L452.449993,1350.1003 C451.660529,1349.20723 451.742343,1347.81525 452.636559,1347.02426 L452.636559,1347.02426 L452.636559,1347.02426 Z M453.841591,1347.73038 C453.468459,1348.04272 453.447432,1348.58331 453.758248,1348.9572 C454.070975,1349.31007 454.63029,1349.35251 454.986218,1349.01952 C455.338323,1348.70832 455.380376,1348.16736 455.067267,1347.79422 C454.735807,1347.44059 454.195607,1347.39968 453.841591,1347.73038 L453.841591,1347.73038 Z" id="Shape" sketch:type="MSShapeGroup"></path>
        </g>
    </g>
</svg>