<?xml version="1.0" encoding="UTF-8" standalone="no"?>
<svg width="15px" height="27px" viewBox="0 0 15 27" version="1.1" xmlns="http://www.w3.org/2000/svg" xmlns:xlink="http://www.w3.org/1999/xlink" xmlns:sketch="http://www.bohemiancoding.com/sketch/ns">
    <!-- Generator: Sketch 3.4.2 (15855) - http://www.bohemiancoding.com/sketch -->
    <title>Shape</title>
    <desc>Created with Sketch.</desc>
    <defs></defs>
    <g id="Home" stroke="none" stroke-width="1" fill="none" fill-rule="evenodd" sketch:type="MSPage">
        <g id="Artboard-1" sketch:type="MSArtboardGroup" transform="translate(-1308.000000, -1223.000000)" fill="#F6B536">
            <path d="M1322.03638,1235.45037 C1322.03638,1235.45037 1322.87752,1227.65784 1322.99817,1225.04911 C1323.04609,1224.00372 1322.14649,1223.15136 1321.10042,1223.15136 C1320.30686,1223.15136 1319.67949,1223.66522 1319.34473,1224.33405 C1318.96511,1225.09261 1317.41027,1227.73532 1317.14553,1230.58943 C1316.92768,1232.94054 1317.73925,1234.71119 1318.09066,1235.35283 L1317.12072,1246.96024 C1317.12072,1248.58067 1318.43867,1249.89863 1320.0591,1249.89863 C1321.67953,1249.89863 1322.99783,1248.58033 1322.99783,1246.96024 L1322.03638,1235.45037 L1322.03638,1235.45037 Z M1320.05944,1249.17542 C1318.84106,1249.17542 1317.84937,1248.18542 1317.84461,1246.96806 L1318.82645,1235.22913 C1318.82645,1235.22913 1317.59312,1232.99968 1317.8667,1230.6557 C1318.19942,1227.79956 1320.05536,1224.52369 1320.05536,1224.52369 C1320.24874,1224.14068 1320.64263,1223.87457 1321.10042,1223.87457 C1321.74478,1223.87457 1322.26884,1224.39693 1322.27326,1225.04061 L1321.31011,1235.44323 L1322.27394,1246.96806 C1322.26986,1248.18542 1321.27816,1249.17542 1320.05944,1249.17542 Z M1314.00798,1235.11595 C1315.20869,1234.41687 1315.95026,1233.15465 1315.95026,1231.75139 L1315.26205,1224.21646 C1315.26205,1223.671 1314.81854,1223.22715 1314.27307,1223.22715 C1314.02396,1223.22715 1313.79863,1223.32265 1313.62463,1223.47524 C1313.41698,1223.27507 1313.13626,1223.15 1312.82563,1223.15 C1312.51942,1223.15 1312.2421,1223.27235 1312.03513,1223.46844 C1311.82883,1223.27235 1311.55117,1223.15 1311.24462,1223.15 C1310.94113,1223.15 1310.66687,1223.27031 1310.46058,1223.46233 C1310.28861,1223.31789 1310.06941,1223.22681 1309.82743,1223.22681 C1309.28162,1223.22681 1308.83777,1223.67066 1308.83777,1224.21613 L1308.14481,1231.75139 C1308.14481,1233.15465 1308.88671,1234.41687 1310.08708,1235.11595 L1309.10898,1246.8209 C1309.10898,1248.44167 1310.42693,1249.75929 1312.0477,1249.75929 C1313.66813,1249.75929 1314.98609,1248.44133 1314.98609,1246.8209 L1314.00798,1235.11595 Z M1312.0477,1249.03642 C1310.82898,1249.03642 1309.83762,1248.04676 1309.83253,1246.82906 L1310.84088,1234.67686 L1310.62643,1234.59632 C1309.55215,1234.05833 1308.88229,1232.98201 1308.87074,1231.78334 L1309.56574,1224.19607 C1309.57696,1224.05911 1309.68843,1223.95274 1309.82811,1223.95002 C1310.10101,1223.94526 1310.10169,1224.21646 1310.10169,1224.21646 C1310.09965,1224.24569 1310.10373,1231.75139 1310.10373,1231.75139 L1310.82694,1231.75139 L1310.82694,1224.24875 C1310.85481,1224.03872 1311.02746,1223.87355 1311.24496,1223.87355 C1311.46587,1223.87355 1311.64225,1224.04416 1311.66502,1224.25929 L1311.68576,1231.75207 L1312.40897,1231.75003 L1312.39673,1224.30245 L1312.39707,1224.30245 L1312.39707,1224.30177 C1312.39775,1224.06557 1312.58943,1223.87355 1312.82563,1223.87355 C1313.06251,1223.87355 1313.25487,1224.06591 1313.25487,1224.30245 L1313.26812,1231.75105 L1313.99133,1231.75105 L1314.00663,1224.21613 C1314.00663,1224.06931 1314.12625,1223.94968 1314.27273,1223.94968 C1314.41241,1223.94968 1314.52321,1224.05911 1314.53408,1224.19607 L1315.22467,1231.783 C1315.21243,1232.98167 1314.54258,1234.05799 1313.46864,1234.59598 L1313.24841,1234.71595 L1314.2622,1246.82906 C1314.25812,1248.04676 1313.26608,1249.03642 1312.0477,1249.03642 L1312.0477,1249.03642 Z" id="Shape" sketch:type="MSShapeGroup"></path>
        </g>
    </g>
</svg>