<?xml version="1.0" encoding="UTF-8" standalone="no"?>
<svg width="26px" height="21px" viewBox="0 0 26 21" version="1.1" xmlns="http://www.w3.org/2000/svg" xmlns:xlink="http://www.w3.org/1999/xlink" xmlns:sketch="http://www.bohemiancoding.com/sketch/ns">
    <!-- Generator: Sketch 3.4.2 (15855) - http://www.bohemiancoding.com/sketch -->
    <title>Shape</title>
    <desc>Created with Sketch.</desc>
    <defs></defs>
    <g id="Home" stroke="none" stroke-width="1" fill="none" fill-rule="evenodd" sketch:type="MSPage">
        <g id="Artboard-1" sketch:type="MSArtboardGroup" transform="translate(-1020.000000, -1385.000000)" fill="#F6B536">
            <path d="M1024.97431,1397.26506 L1024.97431,1395.12822 L1022.74002,1395.12822 C1021.87523,1395.12822 1021.17121,1394.37938 1021.17121,1393.45909 L1021.17121,1388.64086 C1021.17121,1387.72031 1021.87497,1386.97121 1022.74002,1386.97121 L1032.7311,1386.97121 C1033.5959,1386.97121 1034.2994,1387.72031 1034.2994,1388.64086 L1034.2994,1393.45909 C1034.2994,1394.37938 1033.5959,1395.12822 1032.7311,1395.12822 L1032.7311,1396.29969 C1034.24156,1396.29969 1035.47061,1395.0253 1035.47061,1393.45909 L1035.47061,1388.64086 C1035.47061,1387.07465 1034.24182,1385.8 1032.7311,1385.8 L1022.74002,1385.8 C1021.22905,1385.8 1020,1387.07465 1020,1388.64086 L1020,1393.45909 C1020,1395.0253 1021.22905,1396.29969 1022.74002,1396.29969 L1023.8031,1396.29969 L1023.8031,1398.37581 C1023.8031,1398.69447 1024.00868,1398.98343 1024.31457,1399.09599 C1024.4016,1399.12804 1024.49097,1399.14394 1024.57878,1399.14394 C1024.7927,1399.14394 1024.99802,1399.0517 1025.14289,1398.88077 L1027.32349,1396.29995 L1029.49993,1396.29995 L1029.49993,1395.12848 L1026.77997,1395.12848 L1024.97431,1397.26506 Z M1043.25998,1392.11409 L1036.4959,1392.11409 L1036.4959,1393.28556 L1043.25998,1393.28556 C1044.12477,1393.28556 1044.82879,1394.03466 1044.82879,1394.95521 L1044.82879,1399.77266 C1044.82879,1400.69321 1044.12503,1401.44231 1043.25998,1401.44231 L1041.02596,1401.44231 L1041.02596,1403.58019 L1039.22003,1401.44284 L1033.26863,1401.44284 C1032.4041,1401.44284 1031.70034,1400.69373 1031.70034,1399.77318 L1031.70034,1394.95521 C1031.70034,1394.03466 1032.4041,1393.28556 1033.26863,1393.28556 L1033.26863,1392.11409 C1031.75818,1392.11409 1030.52887,1393.38874 1030.52887,1394.95495 L1030.52887,1399.77292 C1030.52887,1401.33992 1031.75792,1402.61404 1033.26863,1402.61404 L1038.67625,1402.61404 L1040.85764,1405.19617 C1041.00224,1405.36605 1041.2073,1405.45777 1041.4207,1405.45777 C1041.50851,1405.45777 1041.59788,1405.44239 1041.68491,1405.41035 C1041.99132,1405.29779 1042.19742,1405.00831 1042.19742,1404.68912 L1042.19742,1402.61378 L1043.25998,1402.61378 C1044.77095,1402.61378 1046,1401.33939 1046,1399.77266 L1046,1394.95521 C1046,1393.38874 1044.77095,1392.11409 1043.25998,1392.11409 Z M1026.88523,1387.73777 L1024.81328,1393.19671 L1026.02878,1393.19671 L1026.45714,1391.98121 L1028.49835,1391.98121 L1028.91107,1393.19671 L1030.15706,1393.19671 L1028.11585,1387.73777 L1026.88523,1387.73777 Z M1026.77085,1391.08671 L1027.48191,1389.08355 L1027.49702,1389.08355 L1028.18516,1391.08671 L1026.77085,1391.08671 Z M1035.63684,1398.59703 C1035.63684,1399.19553 1036.01934,1399.58376 1036.64312,1399.58376 C1037.39248,1399.56786 1038.13377,1399.09209 1038.37504,1398.87739 C1038.61632,1398.66217 1039.26615,1397.91515 1039.55302,1397.32368 C1039.91598,1397.49513 1040.08795,1397.78226 1040.08795,1398.10014 C1040.08795,1398.78775 1039.42561,1399.18667 1038.36853,1399.30783 L1038.88131,1400.01785 C1040.53689,1399.80106 1041.10021,1399.10589 1041.10021,1398.08764 C1041.10021,1397.22753 1040.55904,1396.70538 1039.86517,1396.47661 C1039.87794,1396.41355 1039.90113,1396.34763 1039.91416,1396.2838 L1038.97328,1396.11626 C1038.96703,1396.21136 1038.94801,1396.22882 1038.92951,1396.32418 C1038.59157,1396.3049 1038.2161,1396.35571 1038.0952,1396.38124 C1038.0952,1396.20928 1038.10146,1395.75043 1038.10797,1395.58524 C1038.89121,1395.55345 1039.66142,1395.49014 1040.37456,1395.38174 L1040.2917,1394.4526 C1039.55954,1394.59903 1038.85264,1394.67563 1038.15878,1394.71394 C1038.17754,1394.52894 1038.2036,1394.006 1038.2036,1394.006 L1037.21009,1393.93018 C1037.19706,1394.185 1037.19133,1394.48438 1037.17856,1394.7452 C1036.73874,1394.75146 1036.21737,1394.75146 1035.943,1394.7452 L1035.98755,1395.64308 L1036.09542,1395.64308 C1036.35676,1395.64308 1036.78356,1395.6298 1037.16606,1395.61729 C1037.16606,1395.86534 1037.17205,1396.40026 1037.17856,1396.64232 C1036.28016,1397.01726 1035.63684,1397.71191 1035.63684,1398.59703 Z M1038.62961,1397.15771 C1038.49568,1397.42478 1038.33674,1397.66762 1038.15852,1397.87059 C1038.13246,1397.66032 1038.11996,1397.44406 1038.10745,1397.21503 C1038.17728,1397.20252 1038.45738,1397.15771 1038.62961,1397.15771 L1038.62961,1397.15771 Z M1037.22859,1397.52718 C1037.26064,1397.88388 1037.29894,1398.22755 1037.356,1398.53944 C1037.19081,1398.6223 1037.03187,1398.67337 1036.88465,1398.67988 C1036.56599,1398.69265 1036.56599,1398.48915 1036.56599,1398.39952 C1036.56625,1398.06158 1036.82733,1397.75021 1037.22859,1397.52718 L1037.22859,1397.52718 Z" id="Shape" sketch:type="MSShapeGroup"></path>
        </g>
    </g>
</svg>